<?xml version="1.0" encoding="UTF-8" standalone="no"?>
<!DOCTYPE svg PUBLIC "-//W3C//DTD SVG 1.1//EN"
 "http://www.w3.org/Graphics/SVG/1.1/DTD/svg11.dtd">
<!-- Generated by graphviz version 2.40.1 (20161225.0304)
 -->
<!-- Title: controllers_diagram Pages: 1 -->
<svg width="883pt" height="769pt"
 viewBox="0.00 0.00 883.09 769.00" xmlns="http://www.w3.org/2000/svg" xmlns:xlink="http://www.w3.org/1999/xlink">
<g id="graph0" class="graph" transform="scale(1 1) rotate(0) translate(4 765)">
<title>controllers_diagram</title>
<polygon fill="transparent" stroke="transparent" points="-4,4 -4,-765 879.0898,-765 879.0898,4 -4,4"/>
<!-- _diagram_info -->
<g id="node1" class="node">
<title>_diagram_info</title>
<text text-anchor="start" x="72" y="-666.6" font-family="Times,serif" font-size="13.00" fill="#000000">Controllers diagram</text>
<text text-anchor="start" x="72" y="-653.6" font-family="Times,serif" font-size="13.00" fill="#000000">Date: Jul 16 2017 &#45; 00:04</text>
<text text-anchor="start" x="72" y="-640.6" font-family="Times,serif" font-size="13.00" fill="#000000">Migration version: 20170716020109</text>
<text text-anchor="start" x="72" y="-627.6" font-family="Times,serif" font-size="13.00" fill="#000000">Generated by RailRoady 1.5.3</text>
<text text-anchor="start" x="72" y="-614.6" font-family="Times,serif" font-size="13.00" fill="#000000">http://railroady.prestonlee.com</text>
</g>
<!-- ApplicationController -->
<g id="node2" class="node">
<title>ApplicationController</title>
<path fill="none" stroke="#000000" d="M12,-224.5C12,-224.5 127.6416,-224.5 127.6416,-224.5 133.6416,-224.5 139.6416,-230.5 139.6416,-236.5 139.6416,-236.5 139.6416,-302.5 139.6416,-302.5 139.6416,-308.5 133.6416,-314.5 127.6416,-314.5 127.6416,-314.5 12,-314.5 12,-314.5 6,-314.5 0,-308.5 0,-302.5 0,-302.5 0,-236.5 0,-236.5 0,-230.5 6,-224.5 12,-224.5"/>
<text text-anchor="middle" x="69.8208" y="-299.3" font-family="Times,serif" font-size="14.00" fill="#000000">ApplicationController</text>
<polyline fill="none" stroke="#000000" points="0,-292.5 139.6416,-292.5 "/>
<text text-anchor="start" x="8" y="-277.3" font-family="Times,serif" font-size="14.00" fill="#000000">iframe_view</text>
<polyline fill="none" stroke="#000000" points="0,-270.5 139.6416,-270.5 "/>
<polyline fill="none" stroke="#000000" points="0,-246.5 139.6416,-246.5 "/>
<text text-anchor="start" x="8" y="-231.3" font-family="Times,serif" font-size="14.00" fill="#000000">_layout</text>
</g>
<!-- CompaniesController -->
<g id="node3" class="node">
<title>CompaniesController</title>
<path fill="none" stroke="#000000" d="M524,-656.5C524,-656.5 636.5381,-656.5 636.5381,-656.5 642.5381,-656.5 648.5381,-662.5 648.5381,-668.5 648.5381,-668.5 648.5381,-748.5 648.5381,-748.5 648.5381,-754.5 642.5381,-760.5 636.5381,-760.5 636.5381,-760.5 524,-760.5 524,-760.5 518,-760.5 512,-754.5 512,-748.5 512,-748.5 512,-668.5 512,-668.5 512,-662.5 518,-656.5 524,-656.5"/>
<text text-anchor="middle" x="580.269" y="-745.3" font-family="Times,serif" font-size="14.00" fill="#000000">CompaniesController</text>
<polyline fill="none" stroke="#000000" points="512,-738.5 648.5381,-738.5 "/>
<text text-anchor="start" x="520" y="-723.3" font-family="Times,serif" font-size="14.00" fill="#000000">index</text>
<text text-anchor="start" x="520" y="-709.3" font-family="Times,serif" font-size="14.00" fill="#000000">show</text>
<polyline fill="none" stroke="#000000" points="512,-702.5 648.5381,-702.5 "/>
<polyline fill="none" stroke="#000000" points="512,-678.5 648.5381,-678.5 "/>
<text text-anchor="start" x="520" y="-663.3" font-family="Times,serif" font-size="14.00" fill="#000000">_layout</text>
</g>
<!-- CompanyController -->
<g id="node4" class="node">
<title>CompanyController</title>
<path fill="none" stroke="#000000" d="M284,-16.5C284,-16.5 387.9863,-16.5 387.9863,-16.5 393.9863,-16.5 399.9863,-22.5 399.9863,-28.5 399.9863,-28.5 399.9863,-94.5 399.9863,-94.5 399.9863,-100.5 393.9863,-106.5 387.9863,-106.5 387.9863,-106.5 284,-106.5 284,-106.5 278,-106.5 272,-100.5 272,-94.5 272,-94.5 272,-28.5 272,-28.5 272,-22.5 278,-16.5 284,-16.5"/>
<text text-anchor="middle" x="335.9932" y="-91.3" font-family="Times,serif" font-size="14.00" fill="#000000">CompanyController</text>
<polyline fill="none" stroke="#000000" points="272,-84.5 399.9863,-84.5 "/>
<text text-anchor="start" x="280" y="-69.3" font-family="Times,serif" font-size="14.00" fill="#000000">show</text>
<polyline fill="none" stroke="#000000" points="272,-62.5 399.9863,-62.5 "/>
<polyline fill="none" stroke="#000000" points="272,-38.5 399.9863,-38.5 "/>
<text text-anchor="start" x="280" y="-23.3" font-family="Times,serif" font-size="14.00" fill="#000000">_layout</text>
</g>
<!-- Employees::ConfirmationsController -->
<g id="node5" class="node">
<title>Employees::ConfirmationsController</title>
<path fill="none" stroke="#000000" d="M188,-144.5C188,-144.5 387.6484,-144.5 387.6484,-144.5 393.6484,-144.5 399.6484,-150.5 399.6484,-156.5 399.6484,-156.5 399.6484,-224.5 399.6484,-224.5 399.6484,-230.5 393.6484,-236.5 387.6484,-236.5 387.6484,-236.5 188,-236.5 188,-236.5 182,-236.5 176,-230.5 176,-224.5 176,-224.5 176,-156.5 176,-156.5 176,-150.5 182,-144.5 188,-144.5"/>
<text text-anchor="middle" x="287.8242" y="-221.3" font-family="Times,serif" font-size="14.00" fill="#000000">Employees::ConfirmationsController</text>
<polyline fill="none" stroke="#000000" points="176,-214.5 399.6484,-214.5 "/>
<polyline fill="none" stroke="#000000" points="176,-190.5 399.6484,-190.5 "/>
<polyline fill="none" stroke="#000000" points="176,-166.5 399.6484,-166.5 "/>
<text text-anchor="start" x="184" y="-151.3" font-family="Times,serif" font-size="14.00" fill="#000000">_layout</text>
</g>
<!-- Employees::OmniauthCallbacksController -->
<g id="node6" class="node">
<title>Employees::OmniauthCallbacksController</title>
<path fill="none" stroke="#000000" d="M236,-272.5C236,-272.5 466.7314,-272.5 466.7314,-272.5 472.7314,-272.5 478.7314,-278.5 478.7314,-284.5 478.7314,-284.5 478.7314,-352.5 478.7314,-352.5 478.7314,-358.5 472.7314,-364.5 466.7314,-364.5 466.7314,-364.5 236,-364.5 236,-364.5 230,-364.5 224,-358.5 224,-352.5 224,-352.5 224,-284.5 224,-284.5 224,-278.5 230,-272.5 236,-272.5"/>
<text text-anchor="middle" x="351.3657" y="-349.3" font-family="Times,serif" font-size="14.00" fill="#000000">Employees::OmniauthCallbacksController</text>
<polyline fill="none" stroke="#000000" points="224,-342.5 478.7314,-342.5 "/>
<polyline fill="none" stroke="#000000" points="224,-318.5 478.7314,-318.5 "/>
<polyline fill="none" stroke="#000000" points="224,-294.5 478.7314,-294.5 "/>
<text text-anchor="start" x="232" y="-279.3" font-family="Times,serif" font-size="14.00" fill="#000000">_layout</text>
</g>
<!-- Employees::PasswordsController -->
<g id="node7" class="node">
<title>Employees::PasswordsController</title>
<path fill="none" stroke="#000000" d="M444,-32.5C444,-32.5 622.6484,-32.5 622.6484,-32.5 628.6484,-32.5 634.6484,-38.5 634.6484,-44.5 634.6484,-44.5 634.6484,-112.5 634.6484,-112.5 634.6484,-118.5 628.6484,-124.5 622.6484,-124.5 622.6484,-124.5 444,-124.5 444,-124.5 438,-124.5 432,-118.5 432,-112.5 432,-112.5 432,-44.5 432,-44.5 432,-38.5 438,-32.5 444,-32.5"/>
<text text-anchor="middle" x="533.3242" y="-109.3" font-family="Times,serif" font-size="14.00" fill="#000000">Employees::PasswordsController</text>
<polyline fill="none" stroke="#000000" points="432,-102.5 634.6484,-102.5 "/>
<polyline fill="none" stroke="#000000" points="432,-78.5 634.6484,-78.5 "/>
<polyline fill="none" stroke="#000000" points="432,-54.5 634.6484,-54.5 "/>
<text text-anchor="start" x="440" y="-39.3" font-family="Times,serif" font-size="14.00" fill="#000000">_layout</text>
</g>
<!-- Employees::RegistrationsController -->
<g id="node8" class="node">
<title>Employees::RegistrationsController</title>
<path fill="none" stroke="#000000" d="M524,-160.5C524,-160.5 717.4141,-160.5 717.4141,-160.5 723.4141,-160.5 729.4141,-166.5 729.4141,-172.5 729.4141,-172.5 729.4141,-252.5 729.4141,-252.5 729.4141,-258.5 723.4141,-264.5 717.4141,-264.5 717.4141,-264.5 524,-264.5 524,-264.5 518,-264.5 512,-258.5 512,-252.5 512,-252.5 512,-172.5 512,-172.5 512,-166.5 518,-160.5 524,-160.5"/>
<text text-anchor="middle" x="620.707" y="-249.3" font-family="Times,serif" font-size="14.00" fill="#000000">Employees::RegistrationsController</text>
<polyline fill="none" stroke="#000000" points="512,-242.5 729.4141,-242.5 "/>
<polyline fill="none" stroke="#000000" points="512,-218.5 729.4141,-218.5 "/>
<text text-anchor="start" x="520" y="-203.3" font-family="Times,serif" font-size="14.00" fill="#000000">configure_account_update_params</text>
<text text-anchor="start" x="520" y="-189.3" font-family="Times,serif" font-size="14.00" fill="#000000">configure_sign_up_params</text>
<polyline fill="none" stroke="#000000" points="512,-182.5 729.4141,-182.5 "/>
<text text-anchor="start" x="520" y="-167.3" font-family="Times,serif" font-size="14.00" fill="#000000">_layout</text>
</g>
<!-- Employees::SessionsController -->
<g id="node9" class="node">
<title>Employees::SessionsController</title>
<path fill="none" stroke="#000000" d="M92,-480.5C92,-480.5 259.7656,-480.5 259.7656,-480.5 265.7656,-480.5 271.7656,-486.5 271.7656,-492.5 271.7656,-492.5 271.7656,-558.5 271.7656,-558.5 271.7656,-564.5 265.7656,-570.5 259.7656,-570.5 259.7656,-570.5 92,-570.5 92,-570.5 86,-570.5 80,-564.5 80,-558.5 80,-558.5 80,-492.5 80,-492.5 80,-486.5 86,-480.5 92,-480.5"/>
<text text-anchor="middle" x="175.8828" y="-555.3" font-family="Times,serif" font-size="14.00" fill="#000000">Employees::SessionsController</text>
<polyline fill="none" stroke="#000000" points="80,-548.5 271.7656,-548.5 "/>
<text text-anchor="start" x="88" y="-533.3" font-family="Times,serif" font-size="14.00" fill="#000000">after_sign_in_path_for</text>
<polyline fill="none" stroke="#000000" points="80,-526.5 271.7656,-526.5 "/>
<polyline fill="none" stroke="#000000" points="80,-502.5 271.7656,-502.5 "/>
<text text-anchor="start" x="88" y="-487.3" font-family="Times,serif" font-size="14.00" fill="#000000">_layout</text>
</g>
<!-- Employees::UnlocksController -->
<g id="node10" class="node">
<title>Employees::UnlocksController</title>
<path fill="none" stroke="#000000" d="M60,-16.5C60,-16.5 226.1934,-16.5 226.1934,-16.5 232.1934,-16.5 238.1934,-22.5 238.1934,-28.5 238.1934,-28.5 238.1934,-96.5 238.1934,-96.5 238.1934,-102.5 232.1934,-108.5 226.1934,-108.5 226.1934,-108.5 60,-108.5 60,-108.5 54,-108.5 48,-102.5 48,-96.5 48,-96.5 48,-28.5 48,-28.5 48,-22.5 54,-16.5 60,-16.5"/>
<text text-anchor="middle" x="143.0967" y="-93.3" font-family="Times,serif" font-size="14.00" fill="#000000">Employees::UnlocksController</text>
<polyline fill="none" stroke="#000000" points="48,-86.5 238.1934,-86.5 "/>
<polyline fill="none" stroke="#000000" points="48,-62.5 238.1934,-62.5 "/>
<polyline fill="none" stroke="#000000" points="48,-38.5 238.1934,-38.5 "/>
<text text-anchor="start" x="56" y="-23.3" font-family="Times,serif" font-size="14.00" fill="#000000">_layout</text>
</g>
<!-- JobApplicationsController -->
<g id="node11" class="node">
<title>JobApplicationsController</title>
<path fill="none" stroke="#000000" d="M684,-.5C684,-.5 824.5381,-.5 824.5381,-.5 830.5381,-.5 836.5381,-6.5 836.5381,-12.5 836.5381,-12.5 836.5381,-92.5 836.5381,-92.5 836.5381,-98.5 830.5381,-104.5 824.5381,-104.5 824.5381,-104.5 684,-104.5 684,-104.5 678,-104.5 672,-98.5 672,-92.5 672,-92.5 672,-12.5 672,-12.5 672,-6.5 678,-.5 684,-.5"/>
<text text-anchor="middle" x="754.269" y="-89.3" font-family="Times,serif" font-size="14.00" fill="#000000">JobApplicationsController</text>
<polyline fill="none" stroke="#000000" points="672,-82.5 836.5381,-82.5 "/>
<text text-anchor="start" x="680" y="-67.3" font-family="Times,serif" font-size="14.00" fill="#000000">approve</text>
<text text-anchor="start" x="680" y="-53.3" font-family="Times,serif" font-size="14.00" fill="#000000">create</text>
<polyline fill="none" stroke="#000000" points="672,-46.5 836.5381,-46.5 "/>
<polyline fill="none" stroke="#000000" points="672,-22.5 836.5381,-22.5 "/>
<text text-anchor="start" x="680" y="-7.3" font-family="Times,serif" font-size="14.00" fill="#000000">_layout</text>
</g>
<!-- JobsController -->
<g id="node12" class="node">
<title>JobsController</title>
<path fill="none" stroke="#000000" d="M316,-400.5C316,-400.5 390.4414,-400.5 390.4414,-400.5 396.4414,-400.5 402.4414,-406.5 402.4414,-412.5 402.4414,-412.5 402.4414,-604.5 402.4414,-604.5 402.4414,-610.5 396.4414,-616.5 390.4414,-616.5 390.4414,-616.5 316,-616.5 316,-616.5 310,-616.5 304,-610.5 304,-604.5 304,-604.5 304,-412.5 304,-412.5 304,-406.5 310,-400.5 316,-400.5"/>
<text text-anchor="middle" x="353.2207" y="-601.3" font-family="Times,serif" font-size="14.00" fill="#000000">JobsController</text>
<polyline fill="none" stroke="#000000" points="304,-594.5 402.4414,-594.5 "/>
<text text-anchor="start" x="312" y="-579.3" font-family="Times,serif" font-size="14.00" fill="#000000">update</text>
<text text-anchor="start" x="312" y="-565.3" font-family="Times,serif" font-size="14.00" fill="#000000">create</text>
<text text-anchor="start" x="312" y="-551.3" font-family="Times,serif" font-size="14.00" fill="#000000">destroy</text>
<text text-anchor="start" x="312" y="-537.3" font-family="Times,serif" font-size="14.00" fill="#000000">edit</text>
<text text-anchor="start" x="312" y="-523.3" font-family="Times,serif" font-size="14.00" fill="#000000">index</text>
<text text-anchor="start" x="312" y="-509.3" font-family="Times,serif" font-size="14.00" fill="#000000">new</text>
<text text-anchor="start" x="312" y="-495.3" font-family="Times,serif" font-size="14.00" fill="#000000">show</text>
<text text-anchor="start" x="312" y="-481.3" font-family="Times,serif" font-size="14.00" fill="#000000">apply</text>
<polyline fill="none" stroke="#000000" points="304,-474.5 402.4414,-474.5 "/>
<polyline fill="none" stroke="#000000" points="304,-450.5 402.4414,-450.5 "/>
<text text-anchor="start" x="312" y="-435.3" font-family="Times,serif" font-size="14.00" fill="#000000">_layout</text>
<text text-anchor="start" x="312" y="-421.3" font-family="Times,serif" font-size="14.00" fill="#000000">job_params</text>
<text text-anchor="start" x="312" y="-407.3" font-family="Times,serif" font-size="14.00" fill="#000000">set_job</text>
</g>
<!-- Users::ConfirmationsController -->
<g id="node13" class="node">
<title>Users::ConfirmationsController</title>
<path fill="none" stroke="#000000" d="M572,-528.5C572,-528.5 741.3242,-528.5 741.3242,-528.5 747.3242,-528.5 753.3242,-534.5 753.3242,-540.5 753.3242,-540.5 753.3242,-608.5 753.3242,-608.5 753.3242,-614.5 747.3242,-620.5 741.3242,-620.5 741.3242,-620.5 572,-620.5 572,-620.5 566,-620.5 560,-614.5 560,-608.5 560,-608.5 560,-540.5 560,-540.5 560,-534.5 566,-528.5 572,-528.5"/>
<text text-anchor="middle" x="656.6621" y="-605.3" font-family="Times,serif" font-size="14.00" fill="#000000">Users::ConfirmationsController</text>
<polyline fill="none" stroke="#000000" points="560,-598.5 753.3242,-598.5 "/>
<polyline fill="none" stroke="#000000" points="560,-574.5 753.3242,-574.5 "/>
<polyline fill="none" stroke="#000000" points="560,-550.5 753.3242,-550.5 "/>
<text text-anchor="start" x="568" y="-535.3" font-family="Times,serif" font-size="14.00" fill="#000000">_layout</text>
</g>
<!-- Users::OmniauthCallbacksController -->
<g id="node14" class="node">
<title>Users::OmniauthCallbacksController</title>
<path fill="none" stroke="#000000" d="M444,-400.5C444,-400.5 644.4072,-400.5 644.4072,-400.5 650.4072,-400.5 656.4072,-406.5 656.4072,-412.5 656.4072,-412.5 656.4072,-480.5 656.4072,-480.5 656.4072,-486.5 650.4072,-492.5 644.4072,-492.5 644.4072,-492.5 444,-492.5 444,-492.5 438,-492.5 432,-486.5 432,-480.5 432,-480.5 432,-412.5 432,-412.5 432,-406.5 438,-400.5 444,-400.5"/>
<text text-anchor="middle" x="544.2036" y="-477.3" font-family="Times,serif" font-size="14.00" fill="#000000">Users::OmniauthCallbacksController</text>
<polyline fill="none" stroke="#000000" points="432,-470.5 656.4072,-470.5 "/>
<polyline fill="none" stroke="#000000" points="432,-446.5 656.4072,-446.5 "/>
<polyline fill="none" stroke="#000000" points="432,-422.5 656.4072,-422.5 "/>
<text text-anchor="start" x="440" y="-407.3" font-family="Times,serif" font-size="14.00" fill="#000000">_layout</text>
</g>
<!-- Users::PasswordsController -->
<g id="node15" class="node">
<title>Users::PasswordsController</title>
<path fill="none" stroke="#000000" d="M700,-656.5C700,-656.5 848.3242,-656.5 848.3242,-656.5 854.3242,-656.5 860.3242,-662.5 860.3242,-668.5 860.3242,-668.5 860.3242,-736.5 860.3242,-736.5 860.3242,-742.5 854.3242,-748.5 848.3242,-748.5 848.3242,-748.5 700,-748.5 700,-748.5 694,-748.5 688,-742.5 688,-736.5 688,-736.5 688,-668.5 688,-668.5 688,-662.5 694,-656.5 700,-656.5"/>
<text text-anchor="middle" x="774.1621" y="-733.3" font-family="Times,serif" font-size="14.00" fill="#000000">Users::PasswordsController</text>
<polyline fill="none" stroke="#000000" points="688,-726.5 860.3242,-726.5 "/>
<polyline fill="none" stroke="#000000" points="688,-702.5 860.3242,-702.5 "/>
<polyline fill="none" stroke="#000000" points="688,-678.5 860.3242,-678.5 "/>
<text text-anchor="start" x="696" y="-663.3" font-family="Times,serif" font-size="14.00" fill="#000000">_layout</text>
</g>
<!-- Users::RegistrationsController -->
<g id="node16" class="node">
<title>Users::RegistrationsController</title>
<path fill="none" stroke="#000000" d="M700,-304.5C700,-304.5 863.0898,-304.5 863.0898,-304.5 869.0898,-304.5 875.0898,-310.5 875.0898,-316.5 875.0898,-316.5 875.0898,-382.5 875.0898,-382.5 875.0898,-388.5 869.0898,-394.5 863.0898,-394.5 863.0898,-394.5 700,-394.5 700,-394.5 694,-394.5 688,-388.5 688,-382.5 688,-382.5 688,-316.5 688,-316.5 688,-310.5 694,-304.5 700,-304.5"/>
<text text-anchor="middle" x="781.5449" y="-379.3" font-family="Times,serif" font-size="14.00" fill="#000000">Users::RegistrationsController</text>
<polyline fill="none" stroke="#000000" points="688,-372.5 875.0898,-372.5 "/>
<text text-anchor="start" x="696" y="-357.3" font-family="Times,serif" font-size="14.00" fill="#000000">configure_sign_up_params</text>
<polyline fill="none" stroke="#000000" points="688,-350.5 875.0898,-350.5 "/>
<polyline fill="none" stroke="#000000" points="688,-326.5 875.0898,-326.5 "/>
<text text-anchor="start" x="696" y="-311.3" font-family="Times,serif" font-size="14.00" fill="#000000">_layout</text>
</g>
<!-- Users::SessionsController -->
<g id="node17" class="node">
<title>Users::SessionsController</title>
<path fill="none" stroke="#000000" d="M44,-352.5C44,-352.5 181.4414,-352.5 181.4414,-352.5 187.4414,-352.5 193.4414,-358.5 193.4414,-364.5 193.4414,-364.5 193.4414,-432.5 193.4414,-432.5 193.4414,-438.5 187.4414,-444.5 181.4414,-444.5 181.4414,-444.5 44,-444.5 44,-444.5 38,-444.5 32,-438.5 32,-432.5 32,-432.5 32,-364.5 32,-364.5 32,-358.5 38,-352.5 44,-352.5"/>
<text text-anchor="middle" x="112.7207" y="-429.3" font-family="Times,serif" font-size="14.00" fill="#000000">Users::SessionsController</text>
<polyline fill="none" stroke="#000000" points="32,-422.5 193.4414,-422.5 "/>
<polyline fill="none" stroke="#000000" points="32,-398.5 193.4414,-398.5 "/>
<polyline fill="none" stroke="#000000" points="32,-374.5 193.4414,-374.5 "/>
<text text-anchor="start" x="40" y="-359.3" font-family="Times,serif" font-size="14.00" fill="#000000">_layout</text>
</g>
<!-- Users::UnlocksController -->
<g id="node18" class="node">
<title>Users::UnlocksController</title>
<path fill="none" stroke="#000000" d="M332,-656.5C332,-656.5 467.8691,-656.5 467.8691,-656.5 473.8691,-656.5 479.8691,-662.5 479.8691,-668.5 479.8691,-668.5 479.8691,-736.5 479.8691,-736.5 479.8691,-742.5 473.8691,-748.5 467.8691,-748.5 467.8691,-748.5 332,-748.5 332,-748.5 326,-748.5 320,-742.5 320,-736.5 320,-736.5 320,-668.5 320,-668.5 320,-662.5 326,-656.5 332,-656.5"/>
<text text-anchor="middle" x="399.9346" y="-733.3" font-family="Times,serif" font-size="14.00" fill="#000000">Users::UnlocksController</text>
<polyline fill="none" stroke="#000000" points="320,-726.5 479.8691,-726.5 "/>
<polyline fill="none" stroke="#000000" points="320,-702.5 479.8691,-702.5 "/>
<polyline fill="none" stroke="#000000" points="320,-678.5 479.8691,-678.5 "/>
<text text-anchor="start" x="328" y="-663.3" font-family="Times,serif" font-size="14.00" fill="#000000">_layout</text>
</g>
</g>
</svg>
