<?xml version="1.0" encoding="UTF-8" standalone="no"?>
<!DOCTYPE svg PUBLIC "-//W3C//DTD SVG 1.1//EN"
 "http://www.w3.org/Graphics/SVG/1.1/DTD/svg11.dtd">
<!-- Generated by graphviz version 2.40.1 (20161225.0304)
 -->
<!-- Title: controllers_diagram Pages: 1 -->
<svg width="564pt" height="561pt"
 viewBox="0.00 0.00 564.32 561.00" xmlns="http://www.w3.org/2000/svg" xmlns:xlink="http://www.w3.org/1999/xlink">
<g id="graph0" class="graph" transform="scale(1 1) rotate(0) translate(4 557)">
<title>controllers_diagram</title>
<polygon fill="transparent" stroke="transparent" points="-4,4 -4,-557 560.3242,-557 560.3242,4 -4,4"/>
<!-- _diagram_info -->
<g id="node1" class="node">
<title>_diagram_info</title>
<text text-anchor="start" x="24" y="-474.6" font-family="Times,serif" font-size="13.00" fill="#000000">Controllers diagram</text>
<text text-anchor="start" x="24" y="-461.6" font-family="Times,serif" font-size="13.00" fill="#000000">Date: Jul 15 2017 &#45; 18:15</text>
<text text-anchor="start" x="24" y="-448.6" font-family="Times,serif" font-size="13.00" fill="#000000">Migration version: 20170715221202</text>
<text text-anchor="start" x="24" y="-435.6" font-family="Times,serif" font-size="13.00" fill="#000000">Generated by RailRoady 1.5.2</text>
<text text-anchor="start" x="24" y="-422.6" font-family="Times,serif" font-size="13.00" fill="#000000">http://railroady.prestonlee.com</text>
</g>
<!-- ApplicationController -->
<g id="node2" class="node">
<title>ApplicationController</title>
<path fill="none" stroke="#000000" d="M428,-.5C428,-.5 543.6416,-.5 543.6416,-.5 549.6416,-.5 555.6416,-6.5 555.6416,-12.5 555.6416,-12.5 555.6416,-80.5 555.6416,-80.5 555.6416,-86.5 549.6416,-92.5 543.6416,-92.5 543.6416,-92.5 428,-92.5 428,-92.5 422,-92.5 416,-86.5 416,-80.5 416,-80.5 416,-12.5 416,-12.5 416,-6.5 422,-.5 428,-.5"/>
<text text-anchor="middle" x="485.8208" y="-77.3" font-family="Times,serif" font-size="14.00" fill="#000000">ApplicationController</text>
<polyline fill="none" stroke="#000000" points="416,-70.5 555.6416,-70.5 "/>
<polyline fill="none" stroke="#000000" points="416,-46.5 555.6416,-46.5 "/>
<polyline fill="none" stroke="#000000" points="416,-22.5 555.6416,-22.5 "/>
<text text-anchor="start" x="424" y="-7.3" font-family="Times,serif" font-size="14.00" fill="#000000">_layout</text>
</g>
<!-- JobsController -->
<g id="node3" class="node">
<title>JobsController</title>
<path fill="none" stroke="#000000" d="M268,-336.5C268,-336.5 342.4414,-336.5 342.4414,-336.5 348.4414,-336.5 354.4414,-342.5 354.4414,-348.5 354.4414,-348.5 354.4414,-540.5 354.4414,-540.5 354.4414,-546.5 348.4414,-552.5 342.4414,-552.5 342.4414,-552.5 268,-552.5 268,-552.5 262,-552.5 256,-546.5 256,-540.5 256,-540.5 256,-348.5 256,-348.5 256,-342.5 262,-336.5 268,-336.5"/>
<text text-anchor="middle" x="305.2207" y="-537.3" font-family="Times,serif" font-size="14.00" fill="#000000">JobsController</text>
<polyline fill="none" stroke="#000000" points="256,-530.5 354.4414,-530.5 "/>
<text text-anchor="start" x="264" y="-515.3" font-family="Times,serif" font-size="14.00" fill="#000000">update</text>
<text text-anchor="start" x="264" y="-501.3" font-family="Times,serif" font-size="14.00" fill="#000000">create</text>
<text text-anchor="start" x="264" y="-487.3" font-family="Times,serif" font-size="14.00" fill="#000000">destroy</text>
<text text-anchor="start" x="264" y="-473.3" font-family="Times,serif" font-size="14.00" fill="#000000">edit</text>
<text text-anchor="start" x="264" y="-459.3" font-family="Times,serif" font-size="14.00" fill="#000000">index</text>
<text text-anchor="start" x="264" y="-445.3" font-family="Times,serif" font-size="14.00" fill="#000000">new</text>
<text text-anchor="start" x="264" y="-431.3" font-family="Times,serif" font-size="14.00" fill="#000000">show</text>
<text text-anchor="start" x="264" y="-417.3" font-family="Times,serif" font-size="14.00" fill="#000000">apply</text>
<polyline fill="none" stroke="#000000" points="256,-410.5 354.4414,-410.5 "/>
<polyline fill="none" stroke="#000000" points="256,-386.5 354.4414,-386.5 "/>
<text text-anchor="start" x="264" y="-371.3" font-family="Times,serif" font-size="14.00" fill="#000000">_layout</text>
<text text-anchor="start" x="264" y="-357.3" font-family="Times,serif" font-size="14.00" fill="#000000">job_params</text>
<text text-anchor="start" x="264" y="-343.3" font-family="Times,serif" font-size="14.00" fill="#000000">set_job</text>
</g>
<!-- Users::ConfirmationsController -->
<g id="node4" class="node">
<title>Users::ConfirmationsController</title>
<path fill="none" stroke="#000000" d="M316,-128.5C316,-128.5 485.3242,-128.5 485.3242,-128.5 491.3242,-128.5 497.3242,-134.5 497.3242,-140.5 497.3242,-140.5 497.3242,-208.5 497.3242,-208.5 497.3242,-214.5 491.3242,-220.5 485.3242,-220.5 485.3242,-220.5 316,-220.5 316,-220.5 310,-220.5 304,-214.5 304,-208.5 304,-208.5 304,-140.5 304,-140.5 304,-134.5 310,-128.5 316,-128.5"/>
<text text-anchor="middle" x="400.6621" y="-205.3" font-family="Times,serif" font-size="14.00" fill="#000000">Users::ConfirmationsController</text>
<polyline fill="none" stroke="#000000" points="304,-198.5 497.3242,-198.5 "/>
<polyline fill="none" stroke="#000000" points="304,-174.5 497.3242,-174.5 "/>
<polyline fill="none" stroke="#000000" points="304,-150.5 497.3242,-150.5 "/>
<text text-anchor="start" x="312" y="-135.3" font-family="Times,serif" font-size="14.00" fill="#000000">_layout</text>
</g>
<!-- Users::OmniauthCallbacksController -->
<g id="node5" class="node">
<title>Users::OmniauthCallbacksController</title>
<path fill="none" stroke="#000000" d="M60,-208.5C60,-208.5 260.4072,-208.5 260.4072,-208.5 266.4072,-208.5 272.4072,-214.5 272.4072,-220.5 272.4072,-220.5 272.4072,-288.5 272.4072,-288.5 272.4072,-294.5 266.4072,-300.5 260.4072,-300.5 260.4072,-300.5 60,-300.5 60,-300.5 54,-300.5 48,-294.5 48,-288.5 48,-288.5 48,-220.5 48,-220.5 48,-214.5 54,-208.5 60,-208.5"/>
<text text-anchor="middle" x="160.2036" y="-285.3" font-family="Times,serif" font-size="14.00" fill="#000000">Users::OmniauthCallbacksController</text>
<polyline fill="none" stroke="#000000" points="48,-278.5 272.4072,-278.5 "/>
<polyline fill="none" stroke="#000000" points="48,-254.5 272.4072,-254.5 "/>
<polyline fill="none" stroke="#000000" points="48,-230.5 272.4072,-230.5 "/>
<text text-anchor="start" x="56" y="-215.3" font-family="Times,serif" font-size="14.00" fill="#000000">_layout</text>
</g>
<!-- Users::PasswordsController -->
<g id="node6" class="node">
<title>Users::PasswordsController</title>
<path fill="none" stroke="#000000" d="M396,-256.5C396,-256.5 544.3242,-256.5 544.3242,-256.5 550.3242,-256.5 556.3242,-262.5 556.3242,-268.5 556.3242,-268.5 556.3242,-336.5 556.3242,-336.5 556.3242,-342.5 550.3242,-348.5 544.3242,-348.5 544.3242,-348.5 396,-348.5 396,-348.5 390,-348.5 384,-342.5 384,-336.5 384,-336.5 384,-268.5 384,-268.5 384,-262.5 390,-256.5 396,-256.5"/>
<text text-anchor="middle" x="470.1621" y="-333.3" font-family="Times,serif" font-size="14.00" fill="#000000">Users::PasswordsController</text>
<polyline fill="none" stroke="#000000" points="384,-326.5 556.3242,-326.5 "/>
<polyline fill="none" stroke="#000000" points="384,-302.5 556.3242,-302.5 "/>
<polyline fill="none" stroke="#000000" points="384,-278.5 556.3242,-278.5 "/>
<text text-anchor="start" x="392" y="-263.3" font-family="Times,serif" font-size="14.00" fill="#000000">_layout</text>
</g>
<!-- Users::RegistrationsController -->
<g id="node7" class="node">
<title>Users::RegistrationsController</title>
<path fill="none" stroke="#000000" d="M12,-80.5C12,-80.5 175.0898,-80.5 175.0898,-80.5 181.0898,-80.5 187.0898,-86.5 187.0898,-92.5 187.0898,-92.5 187.0898,-158.5 187.0898,-158.5 187.0898,-164.5 181.0898,-170.5 175.0898,-170.5 175.0898,-170.5 12,-170.5 12,-170.5 6,-170.5 0,-164.5 0,-158.5 0,-158.5 0,-92.5 0,-92.5 0,-86.5 6,-80.5 12,-80.5"/>
<text text-anchor="middle" x="93.5449" y="-155.3" font-family="Times,serif" font-size="14.00" fill="#000000">Users::RegistrationsController</text>
<polyline fill="none" stroke="#000000" points="0,-148.5 187.0898,-148.5 "/>
<text text-anchor="start" x="8" y="-133.3" font-family="Times,serif" font-size="14.00" fill="#000000">configure_sign_up_params</text>
<polyline fill="none" stroke="#000000" points="0,-126.5 187.0898,-126.5 "/>
<polyline fill="none" stroke="#000000" points="0,-102.5 187.0898,-102.5 "/>
<text text-anchor="start" x="8" y="-87.3" font-family="Times,serif" font-size="14.00" fill="#000000">_layout</text>
</g>
<!-- Users::SessionsController -->
<g id="node8" class="node">
<title>Users::SessionsController</title>
<path fill="none" stroke="#000000" d="M396,-384.5C396,-384.5 533.4414,-384.5 533.4414,-384.5 539.4414,-384.5 545.4414,-390.5 545.4414,-396.5 545.4414,-396.5 545.4414,-464.5 545.4414,-464.5 545.4414,-470.5 539.4414,-476.5 533.4414,-476.5 533.4414,-476.5 396,-476.5 396,-476.5 390,-476.5 384,-470.5 384,-464.5 384,-464.5 384,-396.5 384,-396.5 384,-390.5 390,-384.5 396,-384.5"/>
<text text-anchor="middle" x="464.7207" y="-461.3" font-family="Times,serif" font-size="14.00" fill="#000000">Users::SessionsController</text>
<polyline fill="none" stroke="#000000" points="384,-454.5 545.4414,-454.5 "/>
<polyline fill="none" stroke="#000000" points="384,-430.5 545.4414,-430.5 "/>
<polyline fill="none" stroke="#000000" points="384,-406.5 545.4414,-406.5 "/>
<text text-anchor="start" x="392" y="-391.3" font-family="Times,serif" font-size="14.00" fill="#000000">_layout</text>
</g>
<!-- Users::UnlocksController -->
<g id="node9" class="node">
<title>Users::UnlocksController</title>
<path fill="none" stroke="#000000" d="M236,-.5C236,-.5 371.8691,-.5 371.8691,-.5 377.8691,-.5 383.8691,-6.5 383.8691,-12.5 383.8691,-12.5 383.8691,-80.5 383.8691,-80.5 383.8691,-86.5 377.8691,-92.5 371.8691,-92.5 371.8691,-92.5 236,-92.5 236,-92.5 230,-92.5 224,-86.5 224,-80.5 224,-80.5 224,-12.5 224,-12.5 224,-6.5 230,-.5 236,-.5"/>
<text text-anchor="middle" x="303.9346" y="-77.3" font-family="Times,serif" font-size="14.00" fill="#000000">Users::UnlocksController</text>
<polyline fill="none" stroke="#000000" points="224,-70.5 383.8691,-70.5 "/>
<polyline fill="none" stroke="#000000" points="224,-46.5 383.8691,-46.5 "/>
<polyline fill="none" stroke="#000000" points="224,-22.5 383.8691,-22.5 "/>
<text text-anchor="start" x="232" y="-7.3" font-family="Times,serif" font-size="14.00" fill="#000000">_layout</text>
</g>
</g>
</svg>
