<?xml version="1.0" encoding="UTF-8" standalone="no"?>
<!DOCTYPE svg PUBLIC "-//W3C//DTD SVG 1.1//EN"
 "http://www.w3.org/Graphics/SVG/1.1/DTD/svg11.dtd">
<!-- Generated by graphviz version 2.40.1 (20161225.0304)
 -->
<!-- Title: controllers_diagram Pages: 1 -->
<svg width="855pt" height="757pt"
 viewBox="0.00 0.00 855.38 757.00" xmlns="http://www.w3.org/2000/svg" xmlns:xlink="http://www.w3.org/1999/xlink">
<g id="graph0" class="graph" transform="scale(1 1) rotate(0) translate(4 753)">
<title>controllers_diagram</title>
<polygon fill="transparent" stroke="transparent" points="-4,4 -4,-753 851.3755,-753 851.3755,4 -4,4"/>
<!-- _diagram_info -->
<g id="node1" class="node">
<title>_diagram_info</title>
<text text-anchor="start" x="648" y="-58.6" font-family="Times,serif" font-size="13.00" fill="#000000">Controllers diagram</text>
<text text-anchor="start" x="648" y="-45.6" font-family="Times,serif" font-size="13.00" fill="#000000">Date: Jul 15 2017 &#45; 19:14</text>
<text text-anchor="start" x="648" y="-32.6" font-family="Times,serif" font-size="13.00" fill="#000000">Migration version: 20170715231340</text>
<text text-anchor="start" x="648" y="-19.6" font-family="Times,serif" font-size="13.00" fill="#000000">Generated by RailRoady 1.5.2</text>
<text text-anchor="start" x="648" y="-6.6" font-family="Times,serif" font-size="13.00" fill="#000000">http://railroady.prestonlee.com</text>
</g>
<!-- ApplicationController -->
<g id="node2" class="node">
<title>ApplicationController</title>
<path fill="none" stroke="#000000" d="M300,-656.5C300,-656.5 415.6416,-656.5 415.6416,-656.5 421.6416,-656.5 427.6416,-662.5 427.6416,-668.5 427.6416,-668.5 427.6416,-734.5 427.6416,-734.5 427.6416,-740.5 421.6416,-746.5 415.6416,-746.5 415.6416,-746.5 300,-746.5 300,-746.5 294,-746.5 288,-740.5 288,-734.5 288,-734.5 288,-668.5 288,-668.5 288,-662.5 294,-656.5 300,-656.5"/>
<text text-anchor="middle" x="357.8208" y="-731.3" font-family="Times,serif" font-size="14.00" fill="#000000">ApplicationController</text>
<polyline fill="none" stroke="#000000" points="288,-724.5 427.6416,-724.5 "/>
<text text-anchor="start" x="296" y="-709.3" font-family="Times,serif" font-size="14.00" fill="#000000">iframe_view</text>
<polyline fill="none" stroke="#000000" points="288,-702.5 427.6416,-702.5 "/>
<polyline fill="none" stroke="#000000" points="288,-678.5 427.6416,-678.5 "/>
<text text-anchor="start" x="296" y="-663.3" font-family="Times,serif" font-size="14.00" fill="#000000">_layout</text>
</g>
<!-- Employees::ConfirmationsController -->
<g id="node3" class="node">
<title>Employees::ConfirmationsController</title>
<path fill="none" stroke="#000000" d="M156,-144.5C156,-144.5 355.6484,-144.5 355.6484,-144.5 361.6484,-144.5 367.6484,-150.5 367.6484,-156.5 367.6484,-156.5 367.6484,-224.5 367.6484,-224.5 367.6484,-230.5 361.6484,-236.5 355.6484,-236.5 355.6484,-236.5 156,-236.5 156,-236.5 150,-236.5 144,-230.5 144,-224.5 144,-224.5 144,-156.5 144,-156.5 144,-150.5 150,-144.5 156,-144.5"/>
<text text-anchor="middle" x="255.8242" y="-221.3" font-family="Times,serif" font-size="14.00" fill="#000000">Employees::ConfirmationsController</text>
<polyline fill="none" stroke="#000000" points="144,-214.5 367.6484,-214.5 "/>
<polyline fill="none" stroke="#000000" points="144,-190.5 367.6484,-190.5 "/>
<polyline fill="none" stroke="#000000" points="144,-166.5 367.6484,-166.5 "/>
<text text-anchor="start" x="152" y="-151.3" font-family="Times,serif" font-size="14.00" fill="#000000">_layout</text>
</g>
<!-- Employees::OmniauthCallbacksController -->
<g id="node4" class="node">
<title>Employees::OmniauthCallbacksController</title>
<path fill="none" stroke="#000000" d="M204,-272.5C204,-272.5 434.7314,-272.5 434.7314,-272.5 440.7314,-272.5 446.7314,-278.5 446.7314,-284.5 446.7314,-284.5 446.7314,-352.5 446.7314,-352.5 446.7314,-358.5 440.7314,-364.5 434.7314,-364.5 434.7314,-364.5 204,-364.5 204,-364.5 198,-364.5 192,-358.5 192,-352.5 192,-352.5 192,-284.5 192,-284.5 192,-278.5 198,-272.5 204,-272.5"/>
<text text-anchor="middle" x="319.3657" y="-349.3" font-family="Times,serif" font-size="14.00" fill="#000000">Employees::OmniauthCallbacksController</text>
<polyline fill="none" stroke="#000000" points="192,-342.5 446.7314,-342.5 "/>
<polyline fill="none" stroke="#000000" points="192,-318.5 446.7314,-318.5 "/>
<polyline fill="none" stroke="#000000" points="192,-294.5 446.7314,-294.5 "/>
<text text-anchor="start" x="200" y="-279.3" font-family="Times,serif" font-size="14.00" fill="#000000">_layout</text>
</g>
<!-- Employees::PasswordsController -->
<g id="node5" class="node">
<title>Employees::PasswordsController</title>
<path fill="none" stroke="#000000" d="M412,-32.5C412,-32.5 590.6484,-32.5 590.6484,-32.5 596.6484,-32.5 602.6484,-38.5 602.6484,-44.5 602.6484,-44.5 602.6484,-112.5 602.6484,-112.5 602.6484,-118.5 596.6484,-124.5 590.6484,-124.5 590.6484,-124.5 412,-124.5 412,-124.5 406,-124.5 400,-118.5 400,-112.5 400,-112.5 400,-44.5 400,-44.5 400,-38.5 406,-32.5 412,-32.5"/>
<text text-anchor="middle" x="501.3242" y="-109.3" font-family="Times,serif" font-size="14.00" fill="#000000">Employees::PasswordsController</text>
<polyline fill="none" stroke="#000000" points="400,-102.5 602.6484,-102.5 "/>
<polyline fill="none" stroke="#000000" points="400,-78.5 602.6484,-78.5 "/>
<polyline fill="none" stroke="#000000" points="400,-54.5 602.6484,-54.5 "/>
<text text-anchor="start" x="408" y="-39.3" font-family="Times,serif" font-size="14.00" fill="#000000">_layout</text>
</g>
<!-- Employees::RegistrationsController -->
<g id="node6" class="node">
<title>Employees::RegistrationsController</title>
<path fill="none" stroke="#000000" d="M492,-160.5C492,-160.5 685.4141,-160.5 685.4141,-160.5 691.4141,-160.5 697.4141,-166.5 697.4141,-172.5 697.4141,-172.5 697.4141,-252.5 697.4141,-252.5 697.4141,-258.5 691.4141,-264.5 685.4141,-264.5 685.4141,-264.5 492,-264.5 492,-264.5 486,-264.5 480,-258.5 480,-252.5 480,-252.5 480,-172.5 480,-172.5 480,-166.5 486,-160.5 492,-160.5"/>
<text text-anchor="middle" x="588.707" y="-249.3" font-family="Times,serif" font-size="14.00" fill="#000000">Employees::RegistrationsController</text>
<polyline fill="none" stroke="#000000" points="480,-242.5 697.4141,-242.5 "/>
<polyline fill="none" stroke="#000000" points="480,-218.5 697.4141,-218.5 "/>
<text text-anchor="start" x="488" y="-203.3" font-family="Times,serif" font-size="14.00" fill="#000000">configure_account_update_params</text>
<text text-anchor="start" x="488" y="-189.3" font-family="Times,serif" font-size="14.00" fill="#000000">configure_sign_up_params</text>
<polyline fill="none" stroke="#000000" points="480,-182.5 697.4141,-182.5 "/>
<text text-anchor="start" x="488" y="-167.3" font-family="Times,serif" font-size="14.00" fill="#000000">_layout</text>
</g>
<!-- Employees::SessionsController -->
<g id="node7" class="node">
<title>Employees::SessionsController</title>
<path fill="none" stroke="#000000" d="M28,-16.5C28,-16.5 195.7656,-16.5 195.7656,-16.5 201.7656,-16.5 207.7656,-22.5 207.7656,-28.5 207.7656,-28.5 207.7656,-96.5 207.7656,-96.5 207.7656,-102.5 201.7656,-108.5 195.7656,-108.5 195.7656,-108.5 28,-108.5 28,-108.5 22,-108.5 16,-102.5 16,-96.5 16,-96.5 16,-28.5 16,-28.5 16,-22.5 22,-16.5 28,-16.5"/>
<text text-anchor="middle" x="111.8828" y="-93.3" font-family="Times,serif" font-size="14.00" fill="#000000">Employees::SessionsController</text>
<polyline fill="none" stroke="#000000" points="16,-86.5 207.7656,-86.5 "/>
<polyline fill="none" stroke="#000000" points="16,-62.5 207.7656,-62.5 "/>
<polyline fill="none" stroke="#000000" points="16,-38.5 207.7656,-38.5 "/>
<text text-anchor="start" x="24" y="-23.3" font-family="Times,serif" font-size="14.00" fill="#000000">_layout</text>
</g>
<!-- Employees::UnlocksController -->
<g id="node8" class="node">
<title>Employees::UnlocksController</title>
<path fill="none" stroke="#000000" d="M60,-464.5C60,-464.5 226.1934,-464.5 226.1934,-464.5 232.1934,-464.5 238.1934,-470.5 238.1934,-476.5 238.1934,-476.5 238.1934,-544.5 238.1934,-544.5 238.1934,-550.5 232.1934,-556.5 226.1934,-556.5 226.1934,-556.5 60,-556.5 60,-556.5 54,-556.5 48,-550.5 48,-544.5 48,-544.5 48,-476.5 48,-476.5 48,-470.5 54,-464.5 60,-464.5"/>
<text text-anchor="middle" x="143.0967" y="-541.3" font-family="Times,serif" font-size="14.00" fill="#000000">Employees::UnlocksController</text>
<polyline fill="none" stroke="#000000" points="48,-534.5 238.1934,-534.5 "/>
<polyline fill="none" stroke="#000000" points="48,-510.5 238.1934,-510.5 "/>
<polyline fill="none" stroke="#000000" points="48,-486.5 238.1934,-486.5 "/>
<text text-anchor="start" x="56" y="-471.3" font-family="Times,serif" font-size="14.00" fill="#000000">_layout</text>
</g>
<!-- JobApplicationsController -->
<g id="node9" class="node">
<title>JobApplicationsController</title>
<path fill="none" stroke="#000000" d="M12,-336.5C12,-336.5 152.5381,-336.5 152.5381,-336.5 158.5381,-336.5 164.5381,-342.5 164.5381,-348.5 164.5381,-348.5 164.5381,-414.5 164.5381,-414.5 164.5381,-420.5 158.5381,-426.5 152.5381,-426.5 152.5381,-426.5 12,-426.5 12,-426.5 6,-426.5 0,-420.5 0,-414.5 0,-414.5 0,-348.5 0,-348.5 0,-342.5 6,-336.5 12,-336.5"/>
<text text-anchor="middle" x="82.269" y="-411.3" font-family="Times,serif" font-size="14.00" fill="#000000">JobApplicationsController</text>
<polyline fill="none" stroke="#000000" points="0,-404.5 164.5381,-404.5 "/>
<text text-anchor="start" x="8" y="-389.3" font-family="Times,serif" font-size="14.00" fill="#000000">create</text>
<polyline fill="none" stroke="#000000" points="0,-382.5 164.5381,-382.5 "/>
<polyline fill="none" stroke="#000000" points="0,-358.5 164.5381,-358.5 "/>
<text text-anchor="start" x="8" y="-343.3" font-family="Times,serif" font-size="14.00" fill="#000000">_layout</text>
</g>
<!-- JobsController -->
<g id="node10" class="node">
<title>JobsController</title>
<path fill="none" stroke="#000000" d="M284,-400.5C284,-400.5 358.4414,-400.5 358.4414,-400.5 364.4414,-400.5 370.4414,-406.5 370.4414,-412.5 370.4414,-412.5 370.4414,-604.5 370.4414,-604.5 370.4414,-610.5 364.4414,-616.5 358.4414,-616.5 358.4414,-616.5 284,-616.5 284,-616.5 278,-616.5 272,-610.5 272,-604.5 272,-604.5 272,-412.5 272,-412.5 272,-406.5 278,-400.5 284,-400.5"/>
<text text-anchor="middle" x="321.2207" y="-601.3" font-family="Times,serif" font-size="14.00" fill="#000000">JobsController</text>
<polyline fill="none" stroke="#000000" points="272,-594.5 370.4414,-594.5 "/>
<text text-anchor="start" x="280" y="-579.3" font-family="Times,serif" font-size="14.00" fill="#000000">update</text>
<text text-anchor="start" x="280" y="-565.3" font-family="Times,serif" font-size="14.00" fill="#000000">create</text>
<text text-anchor="start" x="280" y="-551.3" font-family="Times,serif" font-size="14.00" fill="#000000">destroy</text>
<text text-anchor="start" x="280" y="-537.3" font-family="Times,serif" font-size="14.00" fill="#000000">edit</text>
<text text-anchor="start" x="280" y="-523.3" font-family="Times,serif" font-size="14.00" fill="#000000">index</text>
<text text-anchor="start" x="280" y="-509.3" font-family="Times,serif" font-size="14.00" fill="#000000">new</text>
<text text-anchor="start" x="280" y="-495.3" font-family="Times,serif" font-size="14.00" fill="#000000">show</text>
<text text-anchor="start" x="280" y="-481.3" font-family="Times,serif" font-size="14.00" fill="#000000">apply</text>
<polyline fill="none" stroke="#000000" points="272,-474.5 370.4414,-474.5 "/>
<polyline fill="none" stroke="#000000" points="272,-450.5 370.4414,-450.5 "/>
<text text-anchor="start" x="280" y="-435.3" font-family="Times,serif" font-size="14.00" fill="#000000">_layout</text>
<text text-anchor="start" x="280" y="-421.3" font-family="Times,serif" font-size="14.00" fill="#000000">job_params</text>
<text text-anchor="start" x="280" y="-407.3" font-family="Times,serif" font-size="14.00" fill="#000000">set_job</text>
</g>
<!-- Users::ConfirmationsController -->
<g id="node11" class="node">
<title>Users::ConfirmationsController</title>
<path fill="none" stroke="#000000" d="M540,-528.5C540,-528.5 709.3242,-528.5 709.3242,-528.5 715.3242,-528.5 721.3242,-534.5 721.3242,-540.5 721.3242,-540.5 721.3242,-608.5 721.3242,-608.5 721.3242,-614.5 715.3242,-620.5 709.3242,-620.5 709.3242,-620.5 540,-620.5 540,-620.5 534,-620.5 528,-614.5 528,-608.5 528,-608.5 528,-540.5 528,-540.5 528,-534.5 534,-528.5 540,-528.5"/>
<text text-anchor="middle" x="624.6621" y="-605.3" font-family="Times,serif" font-size="14.00" fill="#000000">Users::ConfirmationsController</text>
<polyline fill="none" stroke="#000000" points="528,-598.5 721.3242,-598.5 "/>
<polyline fill="none" stroke="#000000" points="528,-574.5 721.3242,-574.5 "/>
<polyline fill="none" stroke="#000000" points="528,-550.5 721.3242,-550.5 "/>
<text text-anchor="start" x="536" y="-535.3" font-family="Times,serif" font-size="14.00" fill="#000000">_layout</text>
</g>
<!-- Users::OmniauthCallbacksController -->
<g id="node12" class="node">
<title>Users::OmniauthCallbacksController</title>
<path fill="none" stroke="#000000" d="M412,-400.5C412,-400.5 612.4072,-400.5 612.4072,-400.5 618.4072,-400.5 624.4072,-406.5 624.4072,-412.5 624.4072,-412.5 624.4072,-480.5 624.4072,-480.5 624.4072,-486.5 618.4072,-492.5 612.4072,-492.5 612.4072,-492.5 412,-492.5 412,-492.5 406,-492.5 400,-486.5 400,-480.5 400,-480.5 400,-412.5 400,-412.5 400,-406.5 406,-400.5 412,-400.5"/>
<text text-anchor="middle" x="512.2036" y="-477.3" font-family="Times,serif" font-size="14.00" fill="#000000">Users::OmniauthCallbacksController</text>
<polyline fill="none" stroke="#000000" points="400,-470.5 624.4072,-470.5 "/>
<polyline fill="none" stroke="#000000" points="400,-446.5 624.4072,-446.5 "/>
<polyline fill="none" stroke="#000000" points="400,-422.5 624.4072,-422.5 "/>
<text text-anchor="start" x="408" y="-407.3" font-family="Times,serif" font-size="14.00" fill="#000000">_layout</text>
</g>
<!-- Users::PasswordsController -->
<g id="node13" class="node">
<title>Users::PasswordsController</title>
<path fill="none" stroke="#000000" d="M668,-304.5C668,-304.5 816.3242,-304.5 816.3242,-304.5 822.3242,-304.5 828.3242,-310.5 828.3242,-316.5 828.3242,-316.5 828.3242,-384.5 828.3242,-384.5 828.3242,-390.5 822.3242,-396.5 816.3242,-396.5 816.3242,-396.5 668,-396.5 668,-396.5 662,-396.5 656,-390.5 656,-384.5 656,-384.5 656,-316.5 656,-316.5 656,-310.5 662,-304.5 668,-304.5"/>
<text text-anchor="middle" x="742.1621" y="-381.3" font-family="Times,serif" font-size="14.00" fill="#000000">Users::PasswordsController</text>
<polyline fill="none" stroke="#000000" points="656,-374.5 828.3242,-374.5 "/>
<polyline fill="none" stroke="#000000" points="656,-350.5 828.3242,-350.5 "/>
<polyline fill="none" stroke="#000000" points="656,-326.5 828.3242,-326.5 "/>
<text text-anchor="start" x="664" y="-311.3" font-family="Times,serif" font-size="14.00" fill="#000000">_layout</text>
</g>
<!-- Users::RegistrationsController -->
<g id="node14" class="node">
<title>Users::RegistrationsController</title>
<path fill="none" stroke="#000000" d="M60,-592.5C60,-592.5 223.0898,-592.5 223.0898,-592.5 229.0898,-592.5 235.0898,-598.5 235.0898,-604.5 235.0898,-604.5 235.0898,-670.5 235.0898,-670.5 235.0898,-676.5 229.0898,-682.5 223.0898,-682.5 223.0898,-682.5 60,-682.5 60,-682.5 54,-682.5 48,-676.5 48,-670.5 48,-670.5 48,-604.5 48,-604.5 48,-598.5 54,-592.5 60,-592.5"/>
<text text-anchor="middle" x="141.5449" y="-667.3" font-family="Times,serif" font-size="14.00" fill="#000000">Users::RegistrationsController</text>
<polyline fill="none" stroke="#000000" points="48,-660.5 235.0898,-660.5 "/>
<text text-anchor="start" x="56" y="-645.3" font-family="Times,serif" font-size="14.00" fill="#000000">configure_sign_up_params</text>
<polyline fill="none" stroke="#000000" points="48,-638.5 235.0898,-638.5 "/>
<polyline fill="none" stroke="#000000" points="48,-614.5 235.0898,-614.5 "/>
<text text-anchor="start" x="56" y="-599.3" font-family="Times,serif" font-size="14.00" fill="#000000">_layout</text>
</g>
<!-- Users::SessionsController -->
<g id="node15" class="node">
<title>Users::SessionsController</title>
<path fill="none" stroke="#000000" d="M668,-656.5C668,-656.5 805.4414,-656.5 805.4414,-656.5 811.4414,-656.5 817.4414,-662.5 817.4414,-668.5 817.4414,-668.5 817.4414,-736.5 817.4414,-736.5 817.4414,-742.5 811.4414,-748.5 805.4414,-748.5 805.4414,-748.5 668,-748.5 668,-748.5 662,-748.5 656,-742.5 656,-736.5 656,-736.5 656,-668.5 656,-668.5 656,-662.5 662,-656.5 668,-656.5"/>
<text text-anchor="middle" x="736.7207" y="-733.3" font-family="Times,serif" font-size="14.00" fill="#000000">Users::SessionsController</text>
<polyline fill="none" stroke="#000000" points="656,-726.5 817.4414,-726.5 "/>
<polyline fill="none" stroke="#000000" points="656,-702.5 817.4414,-702.5 "/>
<polyline fill="none" stroke="#000000" points="656,-678.5 817.4414,-678.5 "/>
<text text-anchor="start" x="664" y="-663.3" font-family="Times,serif" font-size="14.00" fill="#000000">_layout</text>
</g>
<!-- Users::UnlocksController -->
<g id="node16" class="node">
<title>Users::UnlocksController</title>
<path fill="none" stroke="#000000" d="M476,-656.5C476,-656.5 611.8691,-656.5 611.8691,-656.5 617.8691,-656.5 623.8691,-662.5 623.8691,-668.5 623.8691,-668.5 623.8691,-736.5 623.8691,-736.5 623.8691,-742.5 617.8691,-748.5 611.8691,-748.5 611.8691,-748.5 476,-748.5 476,-748.5 470,-748.5 464,-742.5 464,-736.5 464,-736.5 464,-668.5 464,-668.5 464,-662.5 470,-656.5 476,-656.5"/>
<text text-anchor="middle" x="543.9346" y="-733.3" font-family="Times,serif" font-size="14.00" fill="#000000">Users::UnlocksController</text>
<polyline fill="none" stroke="#000000" points="464,-726.5 623.8691,-726.5 "/>
<polyline fill="none" stroke="#000000" points="464,-702.5 623.8691,-702.5 "/>
<polyline fill="none" stroke="#000000" points="464,-678.5 623.8691,-678.5 "/>
<text text-anchor="start" x="472" y="-663.3" font-family="Times,serif" font-size="14.00" fill="#000000">_layout</text>
</g>
</g>
</svg>
