<?xml version="1.0" encoding="UTF-8" standalone="no"?>
<!DOCTYPE svg PUBLIC "-//W3C//DTD SVG 1.1//EN"
 "http://www.w3.org/Graphics/SVG/1.1/DTD/svg11.dtd">
<!-- Generated by graphviz version 2.40.1 (20161225.0304)
 -->
<!-- Title: models_diagram Pages: 1 -->
<svg width="556pt" height="225pt"
 viewBox="0.00 0.00 555.69 225.00" xmlns="http://www.w3.org/2000/svg" xmlns:xlink="http://www.w3.org/1999/xlink">
<g id="graph0" class="graph" transform="scale(1 1) rotate(0) translate(4 221)">
<title>models_diagram</title>
<polygon fill="transparent" stroke="transparent" points="-4,4 -4,-221 551.6877,-221 551.6877,4 -4,4"/>
<!-- _diagram_info -->
<g id="node1" class="node">
<title>_diagram_info</title>
<text text-anchor="start" x="8" y="-202.6" font-family="Times,serif" font-size="13.00" fill="#000000">Models diagram</text>
<text text-anchor="start" x="8" y="-189.6" font-family="Times,serif" font-size="13.00" fill="#000000">Date: Jul 15 2017 &#45; 18:15</text>
<text text-anchor="start" x="8" y="-176.6" font-family="Times,serif" font-size="13.00" fill="#000000">Migration version: 20170715221202</text>
<text text-anchor="start" x="8" y="-163.6" font-family="Times,serif" font-size="13.00" fill="#000000">Generated by RailRoady 1.5.2</text>
<text text-anchor="start" x="8" y="-150.6" font-family="Times,serif" font-size="13.00" fill="#000000">http://railroady.prestonlee.com</text>
</g>
<!-- ApplicationRecord -->
<g id="node2" class="node">
<title>ApplicationRecord</title>
<ellipse fill="none" stroke="#000000" cx="302.6877" cy="-180.5" rx="77.2916" ry="18"/>
<text text-anchor="middle" x="302.6877" y="-176.3" font-family="Times,serif" font-size="14.00" fill="#000000">ApplicationRecord</text>
</g>
<!-- City -->
<g id="node3" class="node">
<title>City</title>
<ellipse fill="none" stroke="#000000" cx="436.6877" cy="-90" rx="27" ry="18"/>
<text text-anchor="middle" x="436.6877" y="-85.8" font-family="Times,serif" font-size="14.00" fill="#000000">City</text>
</g>
<!-- Job -->
<g id="node6" class="node">
<title>Job</title>
<ellipse fill="none" stroke="#000000" cx="391.6877" cy="-18" rx="27" ry="18"/>
<text text-anchor="middle" x="391.6877" y="-13.8" font-family="Times,serif" font-size="14.00" fill="#000000">Job</text>
</g>
<!-- City&#45;&gt;Job -->
<g id="edge1" class="edge">
<title>City&#45;&gt;Job</title>
<path fill="none" stroke="#317f38" d="M422.0056,-66.5086C417.5072,-59.3111 412.5327,-51.352 407.9363,-43.9977"/>
<ellipse fill="none" stroke="#317f38" cx="424.1307" cy="-69.9088" rx="4" ry="4"/>
<polygon fill="#317f38" stroke="#317f38" points="407.6807,-43.5886 406.1966,-32.7236 405.0307,-39.3486 402.3806,-35.1086 402.3806,-35.1086 402.3806,-35.1086 405.0307,-39.3486 398.5646,-37.4937 407.6807,-43.5886 407.6807,-43.5886"/>
</g>
<!-- Company -->
<g id="node4" class="node">
<title>Company</title>
<ellipse fill="none" stroke="#000000" cx="347.6877" cy="-90" rx="44.4923" ry="18"/>
<text text-anchor="middle" x="347.6877" y="-85.8" font-family="Times,serif" font-size="14.00" fill="#000000">Company</text>
</g>
<!-- Company&#45;&gt;Job -->
<g id="edge2" class="edge">
<title>Company&#45;&gt;Job</title>
<path fill="none" stroke="#8b4481" d="M362.8178,-65.2417C366.9922,-58.4109 371.5333,-50.98 375.7517,-44.0771"/>
<ellipse fill="none" stroke="#8b4481" cx="360.65" cy="-68.7891" rx="4" ry="4"/>
<polygon fill="#8b4481" stroke="#8b4481" points="376.0249,-43.6301 385.0792,-37.4438 378.6322,-39.3636 381.2394,-35.0972 381.2394,-35.0972 381.2394,-35.0972 378.6322,-39.3636 377.3997,-32.7507 376.0249,-43.6301 376.0249,-43.6301"/>
</g>
<!-- Country -->
<g id="node5" class="node">
<title>Country</title>
<ellipse fill="none" stroke="#000000" cx="436.6877" cy="-180.5" rx="39.1887" ry="18"/>
<text text-anchor="middle" x="436.6877" y="-176.3" font-family="Times,serif" font-size="14.00" fill="#000000">Country</text>
</g>
<!-- Country&#45;&gt;City -->
<g id="edge3" class="edge">
<title>Country&#45;&gt;City</title>
<path fill="none" stroke="#9ed1f0" d="M436.6877,-153.9687C436.6877,-142.8402 436.6877,-129.878 436.6877,-118.5429"/>
<ellipse fill="none" stroke="#9ed1f0" cx="436.6878" cy="-158.186" rx="4" ry="4"/>
<polygon fill="#9ed1f0" stroke="#9ed1f0" points="436.6878,-118.2868 441.1877,-108.2867 436.6878,-113.2868 436.6877,-108.2868 436.6877,-108.2868 436.6877,-108.2868 436.6878,-113.2868 432.1877,-108.2868 436.6878,-118.2868 436.6878,-118.2868"/>
</g>
<!-- User -->
<g id="node7" class="node">
<title>User</title>
<ellipse fill="none" stroke="#000000" cx="520.6877" cy="-180.5" rx="27" ry="18"/>
<text text-anchor="middle" x="520.6877" y="-176.3" font-family="Times,serif" font-size="14.00" fill="#000000">User</text>
</g>
</g>
</svg>
