<?xml version="1.0" encoding="UTF-8" standalone="no"?>
<!DOCTYPE svg PUBLIC "-//W3C//DTD SVG 1.1//EN"
 "http://www.w3.org/Graphics/SVG/1.1/DTD/svg11.dtd">
<!-- Generated by graphviz version 2.40.1 (20161225.0304)
 -->
<!-- Title: models_diagram Pages: 1 -->
<svg width="762pt" height="551pt"
 viewBox="0.00 0.00 761.97 551.00" xmlns="http://www.w3.org/2000/svg" xmlns:xlink="http://www.w3.org/1999/xlink">
<g id="graph0" class="graph" transform="scale(1 1) rotate(0) translate(4 547)">
<title>models_diagram</title>
<polygon fill="transparent" stroke="transparent" points="-4,4 -4,-547 757.9656,-547 757.9656,4 -4,4"/>
<!-- _diagram_info -->
<g id="node1" class="node">
<title>_diagram_info</title>
<text text-anchor="start" x="8" y="-444.6" font-family="Times,serif" font-size="13.00" fill="#000000">Models diagram</text>
<text text-anchor="start" x="8" y="-431.6" font-family="Times,serif" font-size="13.00" fill="#000000">Date: Jul 15 2017 &#45; 18:15</text>
<text text-anchor="start" x="8" y="-418.6" font-family="Times,serif" font-size="13.00" fill="#000000">Migration version: 20170715221202</text>
<text text-anchor="start" x="8" y="-405.6" font-family="Times,serif" font-size="13.00" fill="#000000">Generated by RailRoady 1.5.2</text>
<text text-anchor="start" x="8" y="-392.6" font-family="Times,serif" font-size="13.00" fill="#000000">http://railroady.prestonlee.com</text>
</g>
<!-- ApplicationRecord -->
<g id="node2" class="node">
<title>ApplicationRecord</title>
<ellipse fill="none" stroke="#000000" cx="302.6877" cy="-422.5" rx="77.2916" ry="18"/>
<text text-anchor="middle" x="302.6877" y="-418.3" font-family="Times,serif" font-size="14.00" fill="#000000">ApplicationRecord</text>
</g>
<!-- City -->
<g id="node3" class="node">
<title>City</title>
<path fill="none" stroke="#000000" d="M410.1824,-165.5C410.1824,-165.5 519.1931,-165.5 519.1931,-165.5 525.1931,-165.5 531.1931,-171.5 531.1931,-177.5 531.1931,-177.5 531.1931,-253.5 531.1931,-253.5 531.1931,-259.5 525.1931,-265.5 519.1931,-265.5 519.1931,-265.5 410.1824,-265.5 410.1824,-265.5 404.1824,-265.5 398.1824,-259.5 398.1824,-253.5 398.1824,-253.5 398.1824,-177.5 398.1824,-177.5 398.1824,-171.5 404.1824,-165.5 410.1824,-165.5"/>
<text text-anchor="middle" x="464.6877" y="-250.3" font-family="Times,serif" font-size="14.00" fill="#000000">City</text>
<polyline fill="none" stroke="#000000" points="398.1824,-243.5 531.1931,-243.5 "/>
<text text-anchor="start" x="406.1824" y="-228.3" font-family="Times,serif" font-size="14.00" fill="#000000">id :INTEGER</text>
<text text-anchor="start" x="406.1824" y="-214.3" font-family="Times,serif" font-size="14.00" fill="#000000">name :varchar</text>
<text text-anchor="start" x="406.1824" y="-200.3" font-family="Times,serif" font-size="14.00" fill="#000000">country_id :integer</text>
<text text-anchor="start" x="406.1824" y="-186.3" font-family="Times,serif" font-size="14.00" fill="#000000">created_at :datetime</text>
<text text-anchor="start" x="406.1824" y="-172.3" font-family="Times,serif" font-size="14.00" fill="#000000">updated_at :datetime</text>
</g>
<!-- Job -->
<g id="node6" class="node">
<title>Job</title>
<path fill="none" stroke="#000000" d="M334.1824,-.5C334.1824,-.5 443.1931,-.5 443.1931,-.5 449.1931,-.5 455.1931,-6.5 455.1931,-12.5 455.1931,-12.5 455.1931,-116.5 455.1931,-116.5 455.1931,-122.5 449.1931,-128.5 443.1931,-128.5 443.1931,-128.5 334.1824,-128.5 334.1824,-128.5 328.1824,-128.5 322.1824,-122.5 322.1824,-116.5 322.1824,-116.5 322.1824,-12.5 322.1824,-12.5 322.1824,-6.5 328.1824,-.5 334.1824,-.5"/>
<text text-anchor="middle" x="388.6877" y="-113.3" font-family="Times,serif" font-size="14.00" fill="#000000">Job</text>
<polyline fill="none" stroke="#000000" points="322.1824,-106.5 455.1931,-106.5 "/>
<text text-anchor="start" x="330.1824" y="-91.3" font-family="Times,serif" font-size="14.00" fill="#000000">city_id :integer</text>
<text text-anchor="start" x="330.1824" y="-77.3" font-family="Times,serif" font-size="14.00" fill="#000000">status :integer</text>
<text text-anchor="start" x="330.1824" y="-63.3" font-family="Times,serif" font-size="14.00" fill="#000000">description :text</text>
<text text-anchor="start" x="330.1824" y="-49.3" font-family="Times,serif" font-size="14.00" fill="#000000">id :INTEGER</text>
<text text-anchor="start" x="330.1824" y="-35.3" font-family="Times,serif" font-size="14.00" fill="#000000">created_at :datetime</text>
<text text-anchor="start" x="330.1824" y="-21.3" font-family="Times,serif" font-size="14.00" fill="#000000">updated_at :datetime</text>
<text text-anchor="start" x="330.1824" y="-7.3" font-family="Times,serif" font-size="14.00" fill="#000000">company_id :integer</text>
</g>
<!-- City&#45;&gt;Job -->
<g id="edge1" class="edge">
<title>City&#45;&gt;Job</title>
<path fill="none" stroke="#ecf32a" d="M435.7242,-157.954C432.3952,-151.3398 428.968,-144.5306 425.5531,-137.7456"/>
<ellipse fill="none" stroke="#ecf32a" cx="437.5825" cy="-161.6462" rx="4" ry="4"/>
<polygon fill="#ecf32a" stroke="#ecf32a" points="425.4101,-137.4615 424.9339,-126.5059 423.1622,-132.9953 420.9143,-128.529 420.9143,-128.529 420.9143,-128.529 423.1622,-132.9953 416.8947,-130.5522 425.4101,-137.4615 425.4101,-137.4615"/>
</g>
<!-- Company -->
<g id="node4" class="node">
<title>Company</title>
<path fill="none" stroke="#000000" d="M259.1824,-165.5C259.1824,-165.5 368.1931,-165.5 368.1931,-165.5 374.1931,-165.5 380.1931,-171.5 380.1931,-177.5 380.1931,-177.5 380.1931,-253.5 380.1931,-253.5 380.1931,-259.5 374.1931,-265.5 368.1931,-265.5 368.1931,-265.5 259.1824,-265.5 259.1824,-265.5 253.1824,-265.5 247.1824,-259.5 247.1824,-253.5 247.1824,-253.5 247.1824,-177.5 247.1824,-177.5 247.1824,-171.5 253.1824,-165.5 259.1824,-165.5"/>
<text text-anchor="middle" x="313.6877" y="-250.3" font-family="Times,serif" font-size="14.00" fill="#000000">Company</text>
<polyline fill="none" stroke="#000000" points="247.1824,-243.5 380.1931,-243.5 "/>
<text text-anchor="start" x="255.1824" y="-228.3" font-family="Times,serif" font-size="14.00" fill="#000000">id :INTEGER</text>
<text text-anchor="start" x="255.1824" y="-214.3" font-family="Times,serif" font-size="14.00" fill="#000000">name :varchar</text>
<text text-anchor="start" x="255.1824" y="-200.3" font-family="Times,serif" font-size="14.00" fill="#000000">photo :varchar</text>
<text text-anchor="start" x="255.1824" y="-186.3" font-family="Times,serif" font-size="14.00" fill="#000000">created_at :datetime</text>
<text text-anchor="start" x="255.1824" y="-172.3" font-family="Times,serif" font-size="14.00" fill="#000000">updated_at :datetime</text>
</g>
<!-- Company&#45;&gt;Job -->
<g id="edge2" class="edge">
<title>Company&#45;&gt;Job</title>
<path fill="none" stroke="#05efb7" d="M342.2702,-157.954C345.5554,-151.3398 348.9375,-144.5306 352.3075,-137.7456"/>
<ellipse fill="none" stroke="#05efb7" cx="340.441" cy="-161.6367" rx="4" ry="4"/>
<polygon fill="#05efb7" stroke="#05efb7" points="352.4368,-137.4852 360.9155,-130.5308 354.661,-133.0071 356.8852,-128.529 356.8852,-128.529 356.8852,-128.529 354.661,-133.0071 352.855,-126.5272 352.4368,-137.4852 352.4368,-137.4852"/>
</g>
<!-- Country -->
<g id="node5" class="node">
<title>Country</title>
<path fill="none" stroke="#000000" d="M410.1824,-379.5C410.1824,-379.5 519.1931,-379.5 519.1931,-379.5 525.1931,-379.5 531.1931,-385.5 531.1931,-391.5 531.1931,-391.5 531.1931,-453.5 531.1931,-453.5 531.1931,-459.5 525.1931,-465.5 519.1931,-465.5 519.1931,-465.5 410.1824,-465.5 410.1824,-465.5 404.1824,-465.5 398.1824,-459.5 398.1824,-453.5 398.1824,-453.5 398.1824,-391.5 398.1824,-391.5 398.1824,-385.5 404.1824,-379.5 410.1824,-379.5"/>
<text text-anchor="middle" x="464.6877" y="-450.3" font-family="Times,serif" font-size="14.00" fill="#000000">Country</text>
<polyline fill="none" stroke="#000000" points="398.1824,-443.5 531.1931,-443.5 "/>
<text text-anchor="start" x="406.1824" y="-428.3" font-family="Times,serif" font-size="14.00" fill="#000000">id :INTEGER</text>
<text text-anchor="start" x="406.1824" y="-414.3" font-family="Times,serif" font-size="14.00" fill="#000000">name :varchar</text>
<text text-anchor="start" x="406.1824" y="-400.3" font-family="Times,serif" font-size="14.00" fill="#000000">created_at :datetime</text>
<text text-anchor="start" x="406.1824" y="-386.3" font-family="Times,serif" font-size="14.00" fill="#000000">updated_at :datetime</text>
</g>
<!-- Country&#45;&gt;City -->
<g id="edge3" class="edge">
<title>Country&#45;&gt;City</title>
<path fill="none" stroke="#edd681" d="M464.6877,-370.9498C464.6877,-342.1251 464.6877,-306.0427 464.6877,-275.8988"/>
<ellipse fill="none" stroke="#edd681" cx="464.6878" cy="-375.358" rx="4" ry="4"/>
<polygon fill="#edd681" stroke="#edd681" points="464.6878,-275.5058 469.1877,-265.5058 464.6878,-270.5058 464.6877,-265.5058 464.6877,-265.5058 464.6877,-265.5058 464.6878,-270.5058 460.1877,-265.5059 464.6878,-275.5058 464.6878,-275.5058"/>
</g>
<!-- User -->
<g id="node7" class="node">
<title>User</title>
<path fill="none" stroke="#000000" d="M561.4099,-302.5C561.4099,-302.5 741.9656,-302.5 741.9656,-302.5 747.9656,-302.5 753.9656,-308.5 753.9656,-314.5 753.9656,-314.5 753.9656,-530.5 753.9656,-530.5 753.9656,-536.5 747.9656,-542.5 741.9656,-542.5 741.9656,-542.5 561.4099,-542.5 561.4099,-542.5 555.4099,-542.5 549.4099,-536.5 549.4099,-530.5 549.4099,-530.5 549.4099,-314.5 549.4099,-314.5 549.4099,-308.5 555.4099,-302.5 561.4099,-302.5"/>
<text text-anchor="middle" x="651.6877" y="-527.3" font-family="Times,serif" font-size="14.00" fill="#000000">User</text>
<polyline fill="none" stroke="#000000" points="549.4099,-520.5 753.9656,-520.5 "/>
<text text-anchor="start" x="557.4099" y="-505.3" font-family="Times,serif" font-size="14.00" fill="#000000">profile :text</text>
<text text-anchor="start" x="557.4099" y="-491.3" font-family="Times,serif" font-size="14.00" fill="#000000">email :varchar</text>
<text text-anchor="start" x="557.4099" y="-477.3" font-family="Times,serif" font-size="14.00" fill="#000000">encrypted_password :varchar</text>
<text text-anchor="start" x="557.4099" y="-463.3" font-family="Times,serif" font-size="14.00" fill="#000000">reset_password_token :varchar</text>
<text text-anchor="start" x="557.4099" y="-449.3" font-family="Times,serif" font-size="14.00" fill="#000000">reset_password_sent_at :datetime</text>
<text text-anchor="start" x="557.4099" y="-435.3" font-family="Times,serif" font-size="14.00" fill="#000000">remember_created_at :datetime</text>
<text text-anchor="start" x="557.4099" y="-421.3" font-family="Times,serif" font-size="14.00" fill="#000000">sign_in_count :integer</text>
<text text-anchor="start" x="557.4099" y="-407.3" font-family="Times,serif" font-size="14.00" fill="#000000">current_sign_in_at :datetime</text>
<text text-anchor="start" x="557.4099" y="-393.3" font-family="Times,serif" font-size="14.00" fill="#000000">last_sign_in_at :datetime</text>
<text text-anchor="start" x="557.4099" y="-379.3" font-family="Times,serif" font-size="14.00" fill="#000000">current_sign_in_ip :varchar</text>
<text text-anchor="start" x="557.4099" y="-365.3" font-family="Times,serif" font-size="14.00" fill="#000000">last_sign_in_ip :varchar</text>
<text text-anchor="start" x="557.4099" y="-351.3" font-family="Times,serif" font-size="14.00" fill="#000000">created_at :datetime</text>
<text text-anchor="start" x="557.4099" y="-337.3" font-family="Times,serif" font-size="14.00" fill="#000000">updated_at :datetime</text>
<text text-anchor="start" x="557.4099" y="-323.3" font-family="Times,serif" font-size="14.00" fill="#000000">name :varchar</text>
<text text-anchor="start" x="557.4099" y="-309.3" font-family="Times,serif" font-size="14.00" fill="#000000">id :INTEGER</text>
</g>
</g>
</svg>
