<?xml version="1.0" encoding="UTF-8" standalone="no"?>
<!DOCTYPE svg PUBLIC "-//W3C//DTD SVG 1.1//EN"
 "http://www.w3.org/Graphics/SVG/1.1/DTD/svg11.dtd">
<!-- Generated by graphviz version 2.40.1 (20161225.0304)
 -->
<!-- Title: models_diagram Pages: 1 -->
<svg width="484pt" height="297pt"
 viewBox="0.00 0.00 483.78 297.00" xmlns="http://www.w3.org/2000/svg" xmlns:xlink="http://www.w3.org/1999/xlink">
<g id="graph0" class="graph" transform="scale(1 1) rotate(0) translate(4 293)">
<title>models_diagram</title>
<polygon fill="transparent" stroke="transparent" points="-4,4 -4,-293 479.782,-293 479.782,4 -4,4"/>
<!-- _diagram_info -->
<g id="node1" class="node">
<title>_diagram_info</title>
<text text-anchor="start" x="8" y="-274.6" font-family="Times,serif" font-size="13.00" fill="#000000">Models diagram</text>
<text text-anchor="start" x="8" y="-261.6" font-family="Times,serif" font-size="13.00" fill="#000000">Date: Jul 16 2017 &#45; 00:04</text>
<text text-anchor="start" x="8" y="-248.6" font-family="Times,serif" font-size="13.00" fill="#000000">Migration version: 20170716020109</text>
<text text-anchor="start" x="8" y="-235.6" font-family="Times,serif" font-size="13.00" fill="#000000">Generated by RailRoady 1.5.3</text>
<text text-anchor="start" x="8" y="-222.6" font-family="Times,serif" font-size="13.00" fill="#000000">http://railroady.prestonlee.com</text>
</g>
<!-- ApplicationRecord -->
<g id="node2" class="node">
<title>ApplicationRecord</title>
<ellipse fill="none" stroke="#000000" cx="302.6877" cy="-252.5" rx="77.2916" ry="18"/>
<text text-anchor="middle" x="302.6877" y="-248.3" font-family="Times,serif" font-size="14.00" fill="#000000">ApplicationRecord</text>
</g>
<!-- City -->
<g id="node3" class="node">
<title>City</title>
<ellipse fill="none" stroke="#000000" cx="436.6877" cy="-162" rx="27" ry="18"/>
<text text-anchor="middle" x="436.6877" y="-157.8" font-family="Times,serif" font-size="14.00" fill="#000000">City</text>
</g>
<!-- Job -->
<g id="node7" class="node">
<title>Job</title>
<ellipse fill="none" stroke="#000000" cx="436.6877" cy="-90" rx="27" ry="18"/>
<text text-anchor="middle" x="436.6877" y="-85.8" font-family="Times,serif" font-size="14.00" fill="#000000">Job</text>
</g>
<!-- City&#45;&gt;Job -->
<g id="edge1" class="edge">
<title>City&#45;&gt;Job</title>
<path fill="none" stroke="#19b074" d="M436.6877,-135.8144C436.6877,-130.2775 436.6877,-124.4053 436.6877,-118.7785"/>
<ellipse fill="none" stroke="#19b074" cx="436.6878" cy="-139.8314" rx="4" ry="4"/>
<polygon fill="#19b074" stroke="#19b074" points="436.6878,-118.4133 441.1877,-108.4132 436.6878,-113.4133 436.6877,-108.4133 436.6877,-108.4133 436.6877,-108.4133 436.6878,-113.4133 432.1877,-108.4133 436.6878,-118.4133 436.6878,-118.4133"/>
</g>
<!-- Company -->
<g id="node4" class="node">
<title>Company</title>
<ellipse fill="none" stroke="#000000" cx="346.6877" cy="-162" rx="44.4923" ry="18"/>
<text text-anchor="middle" x="346.6877" y="-157.8" font-family="Times,serif" font-size="14.00" fill="#000000">Company</text>
</g>
<!-- Employee -->
<g id="node6" class="node">
<title>Employee</title>
<ellipse fill="none" stroke="#000000" cx="345.6877" cy="-90" rx="45.92" ry="18"/>
<text text-anchor="middle" x="345.6877" y="-85.8" font-family="Times,serif" font-size="14.00" fill="#000000">Employee</text>
</g>
<!-- Company&#45;&gt;Employee -->
<g id="edge3" class="edge">
<title>Company&#45;&gt;Employee</title>
<path fill="none" stroke="#13b6ec" d="M346.3241,-135.8144C346.2472,-130.2775 346.1656,-124.4053 346.0874,-118.7785"/>
<ellipse fill="none" stroke="#13b6ec" cx="346.3798" cy="-139.8317" rx="4" ry="4"/>
<polygon fill="#13b6ec" stroke="#13b6ec" points="346.0825,-118.4123 350.443,-108.3507 346.013,-113.4128 345.9435,-108.4133 345.9435,-108.4133 345.9435,-108.4133 346.013,-113.4128 341.4439,-108.4758 346.0825,-118.4123 346.0825,-118.4123"/>
</g>
<!-- Company&#45;&gt;Job -->
<g id="edge2" class="edge">
<title>Company&#45;&gt;Job</title>
<path fill="none" stroke="#1e6cd7" d="M373.6701,-140.4141C385.595,-130.8742 399.5419,-119.7166 411.2792,-110.3268"/>
<ellipse fill="none" stroke="#1e6cd7" cx="370.2336" cy="-143.1633" rx="4" ry="4"/>
<polygon fill="#1e6cd7" stroke="#1e6cd7" points="411.5661,-110.0973 422.1859,-107.3643 415.4704,-106.9738 419.3748,-103.8504 419.3748,-103.8504 419.3748,-103.8504 415.4704,-106.9738 416.5637,-100.3364 411.5661,-110.0973 411.5661,-110.0973"/>
</g>
<!-- Country -->
<g id="node5" class="node">
<title>Country</title>
<ellipse fill="none" stroke="#000000" cx="436.6877" cy="-252.5" rx="39.1887" ry="18"/>
<text text-anchor="middle" x="436.6877" y="-248.3" font-family="Times,serif" font-size="14.00" fill="#000000">Country</text>
</g>
<!-- Country&#45;&gt;City -->
<g id="edge4" class="edge">
<title>Country&#45;&gt;City</title>
<path fill="none" stroke="#db2042" d="M436.6877,-225.9687C436.6877,-214.8402 436.6877,-201.878 436.6877,-190.5429"/>
<ellipse fill="none" stroke="#db2042" cx="436.6878" cy="-230.186" rx="4" ry="4"/>
<polygon fill="#db2042" stroke="#db2042" points="436.6878,-190.2868 441.1877,-180.2867 436.6878,-185.2868 436.6877,-180.2868 436.6877,-180.2868 436.6877,-180.2868 436.6878,-185.2868 432.1877,-180.2868 436.6878,-190.2868 436.6878,-190.2868"/>
</g>
<!-- JobApplication -->
<g id="node8" class="node">
<title>JobApplication</title>
<ellipse fill="none" stroke="#000000" cx="345.6877" cy="-18" rx="64.2873" ry="18"/>
<text text-anchor="middle" x="345.6877" y="-13.8" font-family="Times,serif" font-size="14.00" fill="#000000">JobApplication</text>
</g>
<!-- Job&#45;&gt;JobApplication -->
<g id="edge5" class="edge">
<title>Job&#45;&gt;JobApplication</title>
<path fill="none" stroke="#e2609b" d="M412.5625,-70.9119C401.1509,-61.883 387.4182,-51.0175 375.3738,-41.4879"/>
<ellipse fill="none" stroke="#e2609b" cx="416.0051" cy="-73.6357" rx="4" ry="4"/>
<polygon fill="#e2609b" stroke="#e2609b" points="375.1967,-41.3478 370.1466,-31.6139 371.2756,-38.2453 367.3545,-35.1429 367.3545,-35.1429 367.3545,-35.1429 371.2756,-38.2453 364.5623,-38.6719 375.1967,-41.3478 375.1967,-41.3478"/>
</g>
<!-- User -->
<g id="node9" class="node">
<title>User</title>
<ellipse fill="none" stroke="#000000" cx="254.6877" cy="-90" rx="27" ry="18"/>
<text text-anchor="middle" x="254.6877" y="-85.8" font-family="Times,serif" font-size="14.00" fill="#000000">User</text>
</g>
<!-- User&#45;&gt;JobApplication -->
<g id="edge6" class="edge">
<title>User&#45;&gt;JobApplication</title>
<path fill="none" stroke="#318742" d="M278.813,-70.9119C290.2245,-61.883 303.9573,-51.0175 316.0017,-41.4879"/>
<ellipse fill="none" stroke="#318742" cx="275.3704" cy="-73.6357" rx="4" ry="4"/>
<polygon fill="#318742" stroke="#318742" points="316.1788,-41.3478 326.8132,-38.6719 320.0999,-38.2453 324.021,-35.1429 324.021,-35.1429 324.021,-35.1429 320.0999,-38.2453 321.2288,-31.6139 316.1788,-41.3478 316.1788,-41.3478"/>
</g>
</g>
</svg>
