<?xml version="1.0" encoding="UTF-8" standalone="no"?>
<!DOCTYPE svg PUBLIC "-//W3C//DTD SVG 1.1//EN"
 "http://www.w3.org/Graphics/SVG/1.1/DTD/svg11.dtd">
<!-- Generated by graphviz version 2.40.1 (20161225.0304)
 -->
<!-- Title: models_diagram Pages: 1 -->
<svg width="587pt" height="674pt"
 viewBox="0.00 0.00 586.78 674.00" xmlns="http://www.w3.org/2000/svg" xmlns:xlink="http://www.w3.org/1999/xlink">
<g id="graph0" class="graph" transform="scale(1 1) rotate(0) translate(4 670)">
<title>models_diagram</title>
<polygon fill="transparent" stroke="transparent" points="-4,4 -4,-670 582.7832,-670 582.7832,4 -4,4"/>
<!-- _diagram_info -->
<g id="node1" class="node">
<title>_diagram_info</title>
<text text-anchor="start" x="55.5901" y="-644.6" font-family="Times,serif" font-size="13.00" fill="#000000">Models diagram</text>
<text text-anchor="start" x="55.5901" y="-631.6" font-family="Times,serif" font-size="13.00" fill="#000000">Date: Jul 16 2017 &#45; 00:04</text>
<text text-anchor="start" x="55.5901" y="-618.6" font-family="Times,serif" font-size="13.00" fill="#000000">Migration version: 20170716020109</text>
<text text-anchor="start" x="55.5901" y="-605.6" font-family="Times,serif" font-size="13.00" fill="#000000">Generated by RailRoady 1.5.3</text>
<text text-anchor="start" x="55.5901" y="-592.6" font-family="Times,serif" font-size="13.00" fill="#000000">http://railroady.prestonlee.com</text>
</g>
<!-- ApplicationRecord -->
<g id="node2" class="node">
<title>ApplicationRecord</title>
<ellipse fill="none" stroke="#000000" cx="350.2778" cy="-622.5" rx="77.2916" ry="18"/>
<text text-anchor="middle" x="350.2778" y="-618.3" font-family="Times,serif" font-size="14.00" fill="#000000">ApplicationRecord</text>
</g>
<!-- City -->
<g id="node3" class="node">
<title>City</title>
<path fill="none" stroke="#000000" d="M457.7725,-442.5C457.7725,-442.5 566.7832,-442.5 566.7832,-442.5 572.7832,-442.5 578.7832,-448.5 578.7832,-454.5 578.7832,-454.5 578.7832,-530.5 578.7832,-530.5 578.7832,-536.5 572.7832,-542.5 566.7832,-542.5 566.7832,-542.5 457.7725,-542.5 457.7725,-542.5 451.7725,-542.5 445.7725,-536.5 445.7725,-530.5 445.7725,-530.5 445.7725,-454.5 445.7725,-454.5 445.7725,-448.5 451.7725,-442.5 457.7725,-442.5"/>
<text text-anchor="middle" x="512.2778" y="-527.3" font-family="Times,serif" font-size="14.00" fill="#000000">City</text>
<polyline fill="none" stroke="#000000" points="445.7725,-520.5 578.7832,-520.5 "/>
<text text-anchor="start" x="453.7725" y="-505.3" font-family="Times,serif" font-size="14.00" fill="#000000">id :INTEGER</text>
<text text-anchor="start" x="453.7725" y="-491.3" font-family="Times,serif" font-size="14.00" fill="#000000">name :varchar</text>
<text text-anchor="start" x="453.7725" y="-477.3" font-family="Times,serif" font-size="14.00" fill="#000000">country_id :integer</text>
<text text-anchor="start" x="453.7725" y="-463.3" font-family="Times,serif" font-size="14.00" fill="#000000">created_at :datetime</text>
<text text-anchor="start" x="453.7725" y="-449.3" font-family="Times,serif" font-size="14.00" fill="#000000">updated_at :datetime</text>
</g>
<!-- Job -->
<g id="node7" class="node">
<title>Job</title>
<path fill="none" stroke="#000000" d="M457.7725,-207.5C457.7725,-207.5 566.7832,-207.5 566.7832,-207.5 572.7832,-207.5 578.7832,-213.5 578.7832,-219.5 578.7832,-219.5 578.7832,-337.5 578.7832,-337.5 578.7832,-343.5 572.7832,-349.5 566.7832,-349.5 566.7832,-349.5 457.7725,-349.5 457.7725,-349.5 451.7725,-349.5 445.7725,-343.5 445.7725,-337.5 445.7725,-337.5 445.7725,-219.5 445.7725,-219.5 445.7725,-213.5 451.7725,-207.5 457.7725,-207.5"/>
<text text-anchor="middle" x="512.2778" y="-334.3" font-family="Times,serif" font-size="14.00" fill="#000000">Job</text>
<polyline fill="none" stroke="#000000" points="445.7725,-327.5 578.7832,-327.5 "/>
<text text-anchor="start" x="453.7725" y="-312.3" font-family="Times,serif" font-size="14.00" fill="#000000">name :varchar</text>
<text text-anchor="start" x="453.7725" y="-298.3" font-family="Times,serif" font-size="14.00" fill="#000000">status :integer</text>
<text text-anchor="start" x="453.7725" y="-284.3" font-family="Times,serif" font-size="14.00" fill="#000000">description :text</text>
<text text-anchor="start" x="453.7725" y="-270.3" font-family="Times,serif" font-size="14.00" fill="#000000">city_id :integer</text>
<text text-anchor="start" x="453.7725" y="-256.3" font-family="Times,serif" font-size="14.00" fill="#000000">created_at :datetime</text>
<text text-anchor="start" x="453.7725" y="-242.3" font-family="Times,serif" font-size="14.00" fill="#000000">updated_at :datetime</text>
<text text-anchor="start" x="453.7725" y="-228.3" font-family="Times,serif" font-size="14.00" fill="#000000">company_id :integer</text>
<text text-anchor="start" x="453.7725" y="-214.3" font-family="Times,serif" font-size="14.00" fill="#000000">id :INTEGER</text>
</g>
<!-- City&#45;&gt;Job -->
<g id="edge1" class="edge">
<title>City&#45;&gt;Job</title>
<path fill="none" stroke="#369e81" d="M512.2778,-434.0635C512.2778,-411.2044 512.2778,-384.5919 512.2778,-359.9094"/>
<ellipse fill="none" stroke="#369e81" cx="512.2779" cy="-438.3265" rx="4" ry="4"/>
<polygon fill="#369e81" stroke="#369e81" points="512.2779,-359.8321 516.7778,-349.832 512.2779,-354.8321 512.2778,-349.8321 512.2778,-349.8321 512.2778,-349.8321 512.2779,-354.8321 507.7778,-349.8321 512.2779,-359.8321 512.2779,-359.8321"/>
</g>
<!-- Company -->
<g id="node4" class="node">
<title>Company</title>
<path fill="none" stroke="#000000" d="M288.7725,-442.5C288.7725,-442.5 397.7832,-442.5 397.7832,-442.5 403.7832,-442.5 409.7832,-448.5 409.7832,-454.5 409.7832,-454.5 409.7832,-530.5 409.7832,-530.5 409.7832,-536.5 403.7832,-542.5 397.7832,-542.5 397.7832,-542.5 288.7725,-542.5 288.7725,-542.5 282.7725,-542.5 276.7725,-536.5 276.7725,-530.5 276.7725,-530.5 276.7725,-454.5 276.7725,-454.5 276.7725,-448.5 282.7725,-442.5 288.7725,-442.5"/>
<text text-anchor="middle" x="343.2778" y="-527.3" font-family="Times,serif" font-size="14.00" fill="#000000">Company</text>
<polyline fill="none" stroke="#000000" points="276.7725,-520.5 409.7832,-520.5 "/>
<text text-anchor="start" x="284.7725" y="-505.3" font-family="Times,serif" font-size="14.00" fill="#000000">id :INTEGER</text>
<text text-anchor="start" x="284.7725" y="-491.3" font-family="Times,serif" font-size="14.00" fill="#000000">name :varchar</text>
<text text-anchor="start" x="284.7725" y="-477.3" font-family="Times,serif" font-size="14.00" fill="#000000">photo :varchar</text>
<text text-anchor="start" x="284.7725" y="-463.3" font-family="Times,serif" font-size="14.00" fill="#000000">created_at :datetime</text>
<text text-anchor="start" x="284.7725" y="-449.3" font-family="Times,serif" font-size="14.00" fill="#000000">updated_at :datetime</text>
</g>
<!-- Employee -->
<g id="node6" class="node">
<title>Employee</title>
<path fill="none" stroke="#000000" d="M235,-158.5C235,-158.5 415.5557,-158.5 415.5557,-158.5 421.5557,-158.5 427.5557,-164.5 427.5557,-170.5 427.5557,-170.5 427.5557,-386.5 427.5557,-386.5 427.5557,-392.5 421.5557,-398.5 415.5557,-398.5 415.5557,-398.5 235,-398.5 235,-398.5 229,-398.5 223,-392.5 223,-386.5 223,-386.5 223,-170.5 223,-170.5 223,-164.5 229,-158.5 235,-158.5"/>
<text text-anchor="middle" x="325.2778" y="-383.3" font-family="Times,serif" font-size="14.00" fill="#000000">Employee</text>
<polyline fill="none" stroke="#000000" points="223,-376.5 427.5557,-376.5 "/>
<text text-anchor="start" x="231" y="-361.3" font-family="Times,serif" font-size="14.00" fill="#000000">company_id :integer</text>
<text text-anchor="start" x="231" y="-347.3" font-family="Times,serif" font-size="14.00" fill="#000000">email :varchar</text>
<text text-anchor="start" x="231" y="-333.3" font-family="Times,serif" font-size="14.00" fill="#000000">encrypted_password :varchar</text>
<text text-anchor="start" x="231" y="-319.3" font-family="Times,serif" font-size="14.00" fill="#000000">reset_password_token :varchar</text>
<text text-anchor="start" x="231" y="-305.3" font-family="Times,serif" font-size="14.00" fill="#000000">reset_password_sent_at :datetime</text>
<text text-anchor="start" x="231" y="-291.3" font-family="Times,serif" font-size="14.00" fill="#000000">remember_created_at :datetime</text>
<text text-anchor="start" x="231" y="-277.3" font-family="Times,serif" font-size="14.00" fill="#000000">sign_in_count :integer</text>
<text text-anchor="start" x="231" y="-263.3" font-family="Times,serif" font-size="14.00" fill="#000000">current_sign_in_at :datetime</text>
<text text-anchor="start" x="231" y="-249.3" font-family="Times,serif" font-size="14.00" fill="#000000">last_sign_in_at :datetime</text>
<text text-anchor="start" x="231" y="-235.3" font-family="Times,serif" font-size="14.00" fill="#000000">current_sign_in_ip :varchar</text>
<text text-anchor="start" x="231" y="-221.3" font-family="Times,serif" font-size="14.00" fill="#000000">last_sign_in_ip :varchar</text>
<text text-anchor="start" x="231" y="-207.3" font-family="Times,serif" font-size="14.00" fill="#000000">created_at :datetime</text>
<text text-anchor="start" x="231" y="-193.3" font-family="Times,serif" font-size="14.00" fill="#000000">updated_at :datetime</text>
<text text-anchor="start" x="231" y="-179.3" font-family="Times,serif" font-size="14.00" fill="#000000">name :varchar</text>
<text text-anchor="start" x="231" y="-165.3" font-family="Times,serif" font-size="14.00" fill="#000000">id :INTEGER</text>
</g>
<!-- Company&#45;&gt;Employee -->
<g id="edge3" class="edge">
<title>Company&#45;&gt;Employee</title>
<path fill="none" stroke="#4ec02b" d="M338.3849,-434.3284C337.6993,-426.1774 336.9732,-417.5452 336.2284,-408.6903"/>
<ellipse fill="none" stroke="#4ec02b" cx="338.7223" cy="-438.3406" rx="4" ry="4"/>
<polygon fill="#4ec02b" stroke="#4ec02b" points="336.219,-408.577 339.8649,-398.2349 335.7998,-403.5946 335.3807,-398.6122 335.3807,-398.6122 335.3807,-398.6122 335.7998,-403.5946 330.8966,-398.9894 336.219,-408.577 336.219,-408.577"/>
</g>
<!-- Company&#45;&gt;Job -->
<g id="edge2" class="edge">
<title>Company&#45;&gt;Job</title>
<path fill="none" stroke="#68aa77" d="M408.228,-436.6161C418.1123,-426.8583 427.8215,-416.4665 436.2778,-406 448.0293,-391.455 459.2249,-374.9118 469.2357,-358.6718"/>
<ellipse fill="none" stroke="#68aa77" cx="405.2647" cy="-439.4961" rx="4" ry="4"/>
<polygon fill="#68aa77" stroke="#68aa77" points="469.4915,-358.2493 478.5206,-352.0263 472.0814,-353.9724 474.6713,-349.6954 474.6713,-349.6954 474.6713,-349.6954 472.0814,-353.9724 470.8221,-347.3645 469.4915,-358.2493 469.4915,-358.2493"/>
</g>
<!-- Country -->
<g id="node5" class="node">
<title>Country</title>
<path fill="none" stroke="#000000" d="M457.7725,-579.5C457.7725,-579.5 566.7832,-579.5 566.7832,-579.5 572.7832,-579.5 578.7832,-585.5 578.7832,-591.5 578.7832,-591.5 578.7832,-653.5 578.7832,-653.5 578.7832,-659.5 572.7832,-665.5 566.7832,-665.5 566.7832,-665.5 457.7725,-665.5 457.7725,-665.5 451.7725,-665.5 445.7725,-659.5 445.7725,-653.5 445.7725,-653.5 445.7725,-591.5 445.7725,-591.5 445.7725,-585.5 451.7725,-579.5 457.7725,-579.5"/>
<text text-anchor="middle" x="512.2778" y="-650.3" font-family="Times,serif" font-size="14.00" fill="#000000">Country</text>
<polyline fill="none" stroke="#000000" points="445.7725,-643.5 578.7832,-643.5 "/>
<text text-anchor="start" x="453.7725" y="-628.3" font-family="Times,serif" font-size="14.00" fill="#000000">id :INTEGER</text>
<text text-anchor="start" x="453.7725" y="-614.3" font-family="Times,serif" font-size="14.00" fill="#000000">name :varchar</text>
<text text-anchor="start" x="453.7725" y="-600.3" font-family="Times,serif" font-size="14.00" fill="#000000">created_at :datetime</text>
<text text-anchor="start" x="453.7725" y="-586.3" font-family="Times,serif" font-size="14.00" fill="#000000">updated_at :datetime</text>
</g>
<!-- Country&#45;&gt;City -->
<g id="edge4" class="edge">
<title>Country&#45;&gt;City</title>
<path fill="none" stroke="#398317" d="M512.2778,-571.1379C512.2778,-565.1635 512.2778,-559.0282 512.2778,-552.9463"/>
<ellipse fill="none" stroke="#398317" cx="512.2779" cy="-575.2119" rx="4" ry="4"/>
<polygon fill="#398317" stroke="#398317" points="512.2779,-552.7992 516.7778,-542.7991 512.2779,-547.7992 512.2778,-542.7992 512.2778,-542.7992 512.2778,-542.7992 512.2779,-547.7992 507.7778,-542.7992 512.2779,-552.7992 512.2779,-552.7992"/>
</g>
<!-- JobApplication -->
<g id="node8" class="node">
<title>JobApplication</title>
<path fill="none" stroke="#000000" d="M252.7725,-.5C252.7725,-.5 361.7832,-.5 361.7832,-.5 367.7832,-.5 373.7832,-6.5 373.7832,-12.5 373.7832,-12.5 373.7832,-102.5 373.7832,-102.5 373.7832,-108.5 367.7832,-114.5 361.7832,-114.5 361.7832,-114.5 252.7725,-114.5 252.7725,-114.5 246.7725,-114.5 240.7725,-108.5 240.7725,-102.5 240.7725,-102.5 240.7725,-12.5 240.7725,-12.5 240.7725,-6.5 246.7725,-.5 252.7725,-.5"/>
<text text-anchor="middle" x="307.2778" y="-99.3" font-family="Times,serif" font-size="14.00" fill="#000000">JobApplication</text>
<polyline fill="none" stroke="#000000" points="240.7725,-92.5 373.7832,-92.5 "/>
<text text-anchor="start" x="248.7725" y="-77.3" font-family="Times,serif" font-size="14.00" fill="#000000">id :INTEGER</text>
<text text-anchor="start" x="248.7725" y="-63.3" font-family="Times,serif" font-size="14.00" fill="#000000">user_id :integer</text>
<text text-anchor="start" x="248.7725" y="-49.3" font-family="Times,serif" font-size="14.00" fill="#000000">job_id :integer</text>
<text text-anchor="start" x="248.7725" y="-35.3" font-family="Times,serif" font-size="14.00" fill="#000000">status :integer</text>
<text text-anchor="start" x="248.7725" y="-21.3" font-family="Times,serif" font-size="14.00" fill="#000000">created_at :datetime</text>
<text text-anchor="start" x="248.7725" y="-7.3" font-family="Times,serif" font-size="14.00" fill="#000000">updated_at :datetime</text>
</g>
<!-- Job&#45;&gt;JobApplication -->
<g id="edge5" class="edge">
<title>Job&#45;&gt;JobApplication</title>
<path fill="none" stroke="#9c9ae1" d="M472.6868,-200.6052C462.0937,-183.326 449.7854,-165.7762 436.2778,-151 420.5088,-133.7499 401.0958,-117.701 382.1623,-103.9396"/>
<ellipse fill="none" stroke="#9c9ae1" cx="474.7514" cy="-204.0372" rx="4" ry="4"/>
<polygon fill="#9c9ae1" stroke="#9c9ae1" points="381.9466,-103.7859 376.4126,-94.3189 377.8742,-100.885 373.8017,-97.9841 373.8017,-97.9841 373.8017,-97.9841 377.8742,-100.885 371.1909,-101.6493 381.9466,-103.7859 381.9466,-103.7859"/>
</g>
<!-- User -->
<g id="node9" class="node">
<title>User</title>
<path fill="none" stroke="#000000" d="M12,-151.5C12,-151.5 192.5557,-151.5 192.5557,-151.5 198.5557,-151.5 204.5557,-157.5 204.5557,-163.5 204.5557,-163.5 204.5557,-393.5 204.5557,-393.5 204.5557,-399.5 198.5557,-405.5 192.5557,-405.5 192.5557,-405.5 12,-405.5 12,-405.5 6,-405.5 0,-399.5 0,-393.5 0,-393.5 0,-163.5 0,-163.5 0,-157.5 6,-151.5 12,-151.5"/>
<text text-anchor="middle" x="102.2778" y="-390.3" font-family="Times,serif" font-size="14.00" fill="#000000">User</text>
<polyline fill="none" stroke="#000000" points="0,-383.5 204.5557,-383.5 "/>
<text text-anchor="start" x="8" y="-368.3" font-family="Times,serif" font-size="14.00" fill="#000000">city_id :integer</text>
<text text-anchor="start" x="8" y="-354.3" font-family="Times,serif" font-size="14.00" fill="#000000">email :varchar</text>
<text text-anchor="start" x="8" y="-340.3" font-family="Times,serif" font-size="14.00" fill="#000000">encrypted_password :varchar</text>
<text text-anchor="start" x="8" y="-326.3" font-family="Times,serif" font-size="14.00" fill="#000000">reset_password_token :varchar</text>
<text text-anchor="start" x="8" y="-312.3" font-family="Times,serif" font-size="14.00" fill="#000000">reset_password_sent_at :datetime</text>
<text text-anchor="start" x="8" y="-298.3" font-family="Times,serif" font-size="14.00" fill="#000000">remember_created_at :datetime</text>
<text text-anchor="start" x="8" y="-284.3" font-family="Times,serif" font-size="14.00" fill="#000000">sign_in_count :integer</text>
<text text-anchor="start" x="8" y="-270.3" font-family="Times,serif" font-size="14.00" fill="#000000">current_sign_in_at :datetime</text>
<text text-anchor="start" x="8" y="-256.3" font-family="Times,serif" font-size="14.00" fill="#000000">last_sign_in_at :datetime</text>
<text text-anchor="start" x="8" y="-242.3" font-family="Times,serif" font-size="14.00" fill="#000000">current_sign_in_ip :varchar</text>
<text text-anchor="start" x="8" y="-228.3" font-family="Times,serif" font-size="14.00" fill="#000000">last_sign_in_ip :varchar</text>
<text text-anchor="start" x="8" y="-214.3" font-family="Times,serif" font-size="14.00" fill="#000000">created_at :datetime</text>
<text text-anchor="start" x="8" y="-200.3" font-family="Times,serif" font-size="14.00" fill="#000000">updated_at :datetime</text>
<text text-anchor="start" x="8" y="-186.3" font-family="Times,serif" font-size="14.00" fill="#000000">name :varchar</text>
<text text-anchor="start" x="8" y="-172.3" font-family="Times,serif" font-size="14.00" fill="#000000">profile :text</text>
<text text-anchor="start" x="8" y="-158.3" font-family="Times,serif" font-size="14.00" fill="#000000">id :INTEGER</text>
</g>
<!-- User&#45;&gt;JobApplication -->
<g id="edge6" class="edge">
<title>User&#45;&gt;JobApplication</title>
<path fill="none" stroke="#a3f55e" d="M210.4617,-155.0958C211.7385,-153.721 213.0109,-152.3553 214.2778,-151 223.1863,-141.4707 232.7362,-131.5517 242.2006,-121.8884"/>
<ellipse fill="none" stroke="#a3f55e" cx="207.5537" cy="-158.2413" rx="4" ry="4"/>
<polygon fill="#a3f55e" stroke="#a3f55e" points="242.397,-121.6888 252.6175,-117.715 245.9032,-118.1241 249.4093,-114.5594 249.4093,-114.5594 249.4093,-114.5594 245.9032,-118.1241 246.2011,-111.4039 242.397,-121.6888 242.397,-121.6888"/>
</g>
</g>
</svg>
