<?xml version="1.0" encoding="UTF-8" standalone="no"?>
<!DOCTYPE svg PUBLIC "-//W3C//DTD SVG 1.1//EN"
 "http://www.w3.org/Graphics/SVG/1.1/DTD/svg11.dtd">
<!-- Generated by graphviz version 2.40.1 (20161225.0304)
 -->
<!-- Title: models_diagram Pages: 1 -->
<svg width="587pt" height="660pt"
 viewBox="0.00 0.00 586.78 660.00" xmlns="http://www.w3.org/2000/svg" xmlns:xlink="http://www.w3.org/1999/xlink">
<g id="graph0" class="graph" transform="scale(1 1) rotate(0) translate(4 656)">
<title>models_diagram</title>
<polygon fill="transparent" stroke="transparent" points="-4,4 -4,-656 582.7832,-656 582.7832,4 -4,4"/>
<!-- _diagram_info -->
<g id="node1" class="node">
<title>_diagram_info</title>
<text text-anchor="start" x="55.5901" y="-630.6" font-family="Times,serif" font-size="13.00" fill="#000000">Models diagram</text>
<text text-anchor="start" x="55.5901" y="-617.6" font-family="Times,serif" font-size="13.00" fill="#000000">Date: Jul 15 2017 &#45; 19:14</text>
<text text-anchor="start" x="55.5901" y="-604.6" font-family="Times,serif" font-size="13.00" fill="#000000">Migration version: 20170715231340</text>
<text text-anchor="start" x="55.5901" y="-591.6" font-family="Times,serif" font-size="13.00" fill="#000000">Generated by RailRoady 1.5.2</text>
<text text-anchor="start" x="55.5901" y="-578.6" font-family="Times,serif" font-size="13.00" fill="#000000">http://railroady.prestonlee.com</text>
</g>
<!-- ApplicationRecord -->
<g id="node2" class="node">
<title>ApplicationRecord</title>
<ellipse fill="none" stroke="#000000" cx="350.2778" cy="-608.5" rx="77.2916" ry="18"/>
<text text-anchor="middle" x="350.2778" y="-604.3" font-family="Times,serif" font-size="14.00" fill="#000000">ApplicationRecord</text>
</g>
<!-- City -->
<g id="node3" class="node">
<title>City</title>
<path fill="none" stroke="#000000" d="M457.7725,-428.5C457.7725,-428.5 566.7832,-428.5 566.7832,-428.5 572.7832,-428.5 578.7832,-434.5 578.7832,-440.5 578.7832,-440.5 578.7832,-516.5 578.7832,-516.5 578.7832,-522.5 572.7832,-528.5 566.7832,-528.5 566.7832,-528.5 457.7725,-528.5 457.7725,-528.5 451.7725,-528.5 445.7725,-522.5 445.7725,-516.5 445.7725,-516.5 445.7725,-440.5 445.7725,-440.5 445.7725,-434.5 451.7725,-428.5 457.7725,-428.5"/>
<text text-anchor="middle" x="512.2778" y="-513.3" font-family="Times,serif" font-size="14.00" fill="#000000">City</text>
<polyline fill="none" stroke="#000000" points="445.7725,-506.5 578.7832,-506.5 "/>
<text text-anchor="start" x="453.7725" y="-491.3" font-family="Times,serif" font-size="14.00" fill="#000000">id :INTEGER</text>
<text text-anchor="start" x="453.7725" y="-477.3" font-family="Times,serif" font-size="14.00" fill="#000000">name :varchar</text>
<text text-anchor="start" x="453.7725" y="-463.3" font-family="Times,serif" font-size="14.00" fill="#000000">country_id :integer</text>
<text text-anchor="start" x="453.7725" y="-449.3" font-family="Times,serif" font-size="14.00" fill="#000000">created_at :datetime</text>
<text text-anchor="start" x="453.7725" y="-435.3" font-family="Times,serif" font-size="14.00" fill="#000000">updated_at :datetime</text>
</g>
<!-- Job -->
<g id="node7" class="node">
<title>Job</title>
<path fill="none" stroke="#000000" d="M457.7725,-207.5C457.7725,-207.5 566.7832,-207.5 566.7832,-207.5 572.7832,-207.5 578.7832,-213.5 578.7832,-219.5 578.7832,-219.5 578.7832,-323.5 578.7832,-323.5 578.7832,-329.5 572.7832,-335.5 566.7832,-335.5 566.7832,-335.5 457.7725,-335.5 457.7725,-335.5 451.7725,-335.5 445.7725,-329.5 445.7725,-323.5 445.7725,-323.5 445.7725,-219.5 445.7725,-219.5 445.7725,-213.5 451.7725,-207.5 457.7725,-207.5"/>
<text text-anchor="middle" x="512.2778" y="-320.3" font-family="Times,serif" font-size="14.00" fill="#000000">Job</text>
<polyline fill="none" stroke="#000000" points="445.7725,-313.5 578.7832,-313.5 "/>
<text text-anchor="start" x="453.7725" y="-298.3" font-family="Times,serif" font-size="14.00" fill="#000000">city_id :integer</text>
<text text-anchor="start" x="453.7725" y="-284.3" font-family="Times,serif" font-size="14.00" fill="#000000">status :integer</text>
<text text-anchor="start" x="453.7725" y="-270.3" font-family="Times,serif" font-size="14.00" fill="#000000">description :text</text>
<text text-anchor="start" x="453.7725" y="-256.3" font-family="Times,serif" font-size="14.00" fill="#000000">id :INTEGER</text>
<text text-anchor="start" x="453.7725" y="-242.3" font-family="Times,serif" font-size="14.00" fill="#000000">created_at :datetime</text>
<text text-anchor="start" x="453.7725" y="-228.3" font-family="Times,serif" font-size="14.00" fill="#000000">updated_at :datetime</text>
<text text-anchor="start" x="453.7725" y="-214.3" font-family="Times,serif" font-size="14.00" fill="#000000">company_id :integer</text>
</g>
<!-- City&#45;&gt;Job -->
<g id="edge1" class="edge">
<title>City&#45;&gt;Job</title>
<path fill="none" stroke="#662b68" d="M512.2778,-420.3725C512.2778,-397.1894 512.2778,-370.2197 512.2778,-345.6542"/>
<ellipse fill="none" stroke="#662b68" cx="512.2779" cy="-424.3911" rx="4" ry="4"/>
<polygon fill="#662b68" stroke="#662b68" points="512.2779,-345.6536 516.7778,-335.6536 512.2779,-340.6536 512.2778,-335.6536 512.2778,-335.6536 512.2778,-335.6536 512.2779,-340.6536 507.7778,-335.6537 512.2779,-345.6536 512.2779,-345.6536"/>
</g>
<!-- Company -->
<g id="node4" class="node">
<title>Company</title>
<path fill="none" stroke="#000000" d="M288.7725,-428.5C288.7725,-428.5 397.7832,-428.5 397.7832,-428.5 403.7832,-428.5 409.7832,-434.5 409.7832,-440.5 409.7832,-440.5 409.7832,-516.5 409.7832,-516.5 409.7832,-522.5 403.7832,-528.5 397.7832,-528.5 397.7832,-528.5 288.7725,-528.5 288.7725,-528.5 282.7725,-528.5 276.7725,-522.5 276.7725,-516.5 276.7725,-516.5 276.7725,-440.5 276.7725,-440.5 276.7725,-434.5 282.7725,-428.5 288.7725,-428.5"/>
<text text-anchor="middle" x="343.2778" y="-513.3" font-family="Times,serif" font-size="14.00" fill="#000000">Company</text>
<polyline fill="none" stroke="#000000" points="276.7725,-506.5 409.7832,-506.5 "/>
<text text-anchor="start" x="284.7725" y="-491.3" font-family="Times,serif" font-size="14.00" fill="#000000">id :INTEGER</text>
<text text-anchor="start" x="284.7725" y="-477.3" font-family="Times,serif" font-size="14.00" fill="#000000">name :varchar</text>
<text text-anchor="start" x="284.7725" y="-463.3" font-family="Times,serif" font-size="14.00" fill="#000000">photo :varchar</text>
<text text-anchor="start" x="284.7725" y="-449.3" font-family="Times,serif" font-size="14.00" fill="#000000">created_at :datetime</text>
<text text-anchor="start" x="284.7725" y="-435.3" font-family="Times,serif" font-size="14.00" fill="#000000">updated_at :datetime</text>
</g>
<!-- Employee -->
<g id="node6" class="node">
<title>Employee</title>
<path fill="none" stroke="#000000" d="M235,-151.5C235,-151.5 415.5557,-151.5 415.5557,-151.5 421.5557,-151.5 427.5557,-157.5 427.5557,-163.5 427.5557,-163.5 427.5557,-379.5 427.5557,-379.5 427.5557,-385.5 421.5557,-391.5 415.5557,-391.5 415.5557,-391.5 235,-391.5 235,-391.5 229,-391.5 223,-385.5 223,-379.5 223,-379.5 223,-163.5 223,-163.5 223,-157.5 229,-151.5 235,-151.5"/>
<text text-anchor="middle" x="325.2778" y="-376.3" font-family="Times,serif" font-size="14.00" fill="#000000">Employee</text>
<polyline fill="none" stroke="#000000" points="223,-369.5 427.5557,-369.5 "/>
<text text-anchor="start" x="231" y="-354.3" font-family="Times,serif" font-size="14.00" fill="#000000">company_id :integer</text>
<text text-anchor="start" x="231" y="-340.3" font-family="Times,serif" font-size="14.00" fill="#000000">email :varchar</text>
<text text-anchor="start" x="231" y="-326.3" font-family="Times,serif" font-size="14.00" fill="#000000">encrypted_password :varchar</text>
<text text-anchor="start" x="231" y="-312.3" font-family="Times,serif" font-size="14.00" fill="#000000">reset_password_token :varchar</text>
<text text-anchor="start" x="231" y="-298.3" font-family="Times,serif" font-size="14.00" fill="#000000">reset_password_sent_at :datetime</text>
<text text-anchor="start" x="231" y="-284.3" font-family="Times,serif" font-size="14.00" fill="#000000">remember_created_at :datetime</text>
<text text-anchor="start" x="231" y="-270.3" font-family="Times,serif" font-size="14.00" fill="#000000">sign_in_count :integer</text>
<text text-anchor="start" x="231" y="-256.3" font-family="Times,serif" font-size="14.00" fill="#000000">current_sign_in_at :datetime</text>
<text text-anchor="start" x="231" y="-242.3" font-family="Times,serif" font-size="14.00" fill="#000000">last_sign_in_at :datetime</text>
<text text-anchor="start" x="231" y="-228.3" font-family="Times,serif" font-size="14.00" fill="#000000">current_sign_in_ip :varchar</text>
<text text-anchor="start" x="231" y="-214.3" font-family="Times,serif" font-size="14.00" fill="#000000">last_sign_in_ip :varchar</text>
<text text-anchor="start" x="231" y="-200.3" font-family="Times,serif" font-size="14.00" fill="#000000">created_at :datetime</text>
<text text-anchor="start" x="231" y="-186.3" font-family="Times,serif" font-size="14.00" fill="#000000">updated_at :datetime</text>
<text text-anchor="start" x="231" y="-172.3" font-family="Times,serif" font-size="14.00" fill="#000000">name :varchar</text>
<text text-anchor="start" x="231" y="-158.3" font-family="Times,serif" font-size="14.00" fill="#000000">id :INTEGER</text>
</g>
<!-- Company&#45;&gt;Employee -->
<g id="edge3" class="edge">
<title>Company&#45;&gt;Employee</title>
<path fill="none" stroke="#650901" d="M338.2095,-420.2144C337.6906,-414.2474 337.1501,-408.0308 336.597,-401.67"/>
<ellipse fill="none" stroke="#650901" cx="338.574" cy="-424.4061" rx="4" ry="4"/>
<polygon fill="#650901" stroke="#650901" points="336.5852,-401.5334 340.2019,-391.1811 336.152,-396.5522 335.7188,-391.5709 335.7188,-391.5709 335.7188,-391.5709 336.152,-396.5522 331.2357,-391.9608 336.5852,-401.5334 336.5852,-401.5334"/>
</g>
<!-- Company&#45;&gt;Job -->
<g id="edge2" class="edge">
<title>Company&#45;&gt;Job</title>
<path fill="none" stroke="#96e59f" d="M408.0001,-422.4296C417.9128,-412.695 427.6905,-402.3593 436.2778,-392 448.5097,-377.2441 460.3001,-360.3801 470.7956,-344.0365"/>
<ellipse fill="none" stroke="#96e59f" cx="405.0299" cy="-425.3051" rx="4" ry="4"/>
<polygon fill="#96e59f" stroke="#96e59f" points="470.8167,-344.003 479.9648,-337.9563 473.4891,-339.777 476.1615,-335.5511 476.1615,-335.5511 476.1615,-335.5511 473.4891,-339.777 472.3581,-333.146 470.8167,-344.003 470.8167,-344.003"/>
</g>
<!-- Country -->
<g id="node5" class="node">
<title>Country</title>
<path fill="none" stroke="#000000" d="M457.7725,-565.5C457.7725,-565.5 566.7832,-565.5 566.7832,-565.5 572.7832,-565.5 578.7832,-571.5 578.7832,-577.5 578.7832,-577.5 578.7832,-639.5 578.7832,-639.5 578.7832,-645.5 572.7832,-651.5 566.7832,-651.5 566.7832,-651.5 457.7725,-651.5 457.7725,-651.5 451.7725,-651.5 445.7725,-645.5 445.7725,-639.5 445.7725,-639.5 445.7725,-577.5 445.7725,-577.5 445.7725,-571.5 451.7725,-565.5 457.7725,-565.5"/>
<text text-anchor="middle" x="512.2778" y="-636.3" font-family="Times,serif" font-size="14.00" fill="#000000">Country</text>
<polyline fill="none" stroke="#000000" points="445.7725,-629.5 578.7832,-629.5 "/>
<text text-anchor="start" x="453.7725" y="-614.3" font-family="Times,serif" font-size="14.00" fill="#000000">id :INTEGER</text>
<text text-anchor="start" x="453.7725" y="-600.3" font-family="Times,serif" font-size="14.00" fill="#000000">name :varchar</text>
<text text-anchor="start" x="453.7725" y="-586.3" font-family="Times,serif" font-size="14.00" fill="#000000">created_at :datetime</text>
<text text-anchor="start" x="453.7725" y="-572.3" font-family="Times,serif" font-size="14.00" fill="#000000">updated_at :datetime</text>
</g>
<!-- Country&#45;&gt;City -->
<g id="edge4" class="edge">
<title>Country&#45;&gt;City</title>
<path fill="none" stroke="#e43fe8" d="M512.2778,-557.1379C512.2778,-551.1635 512.2778,-545.0282 512.2778,-538.9463"/>
<ellipse fill="none" stroke="#e43fe8" cx="512.2779" cy="-561.2119" rx="4" ry="4"/>
<polygon fill="#e43fe8" stroke="#e43fe8" points="512.2779,-538.7992 516.7778,-528.7991 512.2779,-533.7992 512.2778,-528.7992 512.2778,-528.7992 512.2778,-528.7992 512.2779,-533.7992 507.7778,-528.7992 512.2779,-538.7992 512.2779,-538.7992"/>
</g>
<!-- JobApplication -->
<g id="node8" class="node">
<title>JobApplication</title>
<path fill="none" stroke="#000000" d="M252.7725,-.5C252.7725,-.5 361.7832,-.5 361.7832,-.5 367.7832,-.5 373.7832,-6.5 373.7832,-12.5 373.7832,-12.5 373.7832,-102.5 373.7832,-102.5 373.7832,-108.5 367.7832,-114.5 361.7832,-114.5 361.7832,-114.5 252.7725,-114.5 252.7725,-114.5 246.7725,-114.5 240.7725,-108.5 240.7725,-102.5 240.7725,-102.5 240.7725,-12.5 240.7725,-12.5 240.7725,-6.5 246.7725,-.5 252.7725,-.5"/>
<text text-anchor="middle" x="307.2778" y="-99.3" font-family="Times,serif" font-size="14.00" fill="#000000">JobApplication</text>
<polyline fill="none" stroke="#000000" points="240.7725,-92.5 373.7832,-92.5 "/>
<text text-anchor="start" x="248.7725" y="-77.3" font-family="Times,serif" font-size="14.00" fill="#000000">id :INTEGER</text>
<text text-anchor="start" x="248.7725" y="-63.3" font-family="Times,serif" font-size="14.00" fill="#000000">user_id :integer</text>
<text text-anchor="start" x="248.7725" y="-49.3" font-family="Times,serif" font-size="14.00" fill="#000000">job_id :integer</text>
<text text-anchor="start" x="248.7725" y="-35.3" font-family="Times,serif" font-size="14.00" fill="#000000">status :integer</text>
<text text-anchor="start" x="248.7725" y="-21.3" font-family="Times,serif" font-size="14.00" fill="#000000">created_at :datetime</text>
<text text-anchor="start" x="248.7725" y="-7.3" font-family="Times,serif" font-size="14.00" fill="#000000">updated_at :datetime</text>
</g>
<!-- Job&#45;&gt;JobApplication -->
<g id="edge5" class="edge">
<title>Job&#45;&gt;JobApplication</title>
<path fill="none" stroke="#af9c81" d="M473.7635,-200.462C462.8258,-183.3302 450.0917,-165.7347 436.2778,-151 420.3754,-134.0375 401.0075,-118.1334 382.1647,-104.4215"/>
<ellipse fill="none" stroke="#af9c81" cx="475.8971" cy="-203.8636" rx="4" ry="4"/>
<polygon fill="#af9c81" stroke="#af9c81" points="381.985,-104.2932 376.462,-94.8197 377.9159,-101.3875 373.8469,-98.4818 373.8469,-98.4818 373.8469,-98.4818 377.9159,-101.3875 371.2318,-102.144 381.985,-104.2932 381.985,-104.2932"/>
</g>
<!-- User -->
<g id="node9" class="node">
<title>User</title>
<path fill="none" stroke="#000000" d="M12,-151.5C12,-151.5 192.5557,-151.5 192.5557,-151.5 198.5557,-151.5 204.5557,-157.5 204.5557,-163.5 204.5557,-163.5 204.5557,-379.5 204.5557,-379.5 204.5557,-385.5 198.5557,-391.5 192.5557,-391.5 192.5557,-391.5 12,-391.5 12,-391.5 6,-391.5 0,-385.5 0,-379.5 0,-379.5 0,-163.5 0,-163.5 0,-157.5 6,-151.5 12,-151.5"/>
<text text-anchor="middle" x="102.2778" y="-376.3" font-family="Times,serif" font-size="14.00" fill="#000000">User</text>
<polyline fill="none" stroke="#000000" points="0,-369.5 204.5557,-369.5 "/>
<text text-anchor="start" x="8" y="-354.3" font-family="Times,serif" font-size="14.00" fill="#000000">profile :text</text>
<text text-anchor="start" x="8" y="-340.3" font-family="Times,serif" font-size="14.00" fill="#000000">email :varchar</text>
<text text-anchor="start" x="8" y="-326.3" font-family="Times,serif" font-size="14.00" fill="#000000">encrypted_password :varchar</text>
<text text-anchor="start" x="8" y="-312.3" font-family="Times,serif" font-size="14.00" fill="#000000">reset_password_token :varchar</text>
<text text-anchor="start" x="8" y="-298.3" font-family="Times,serif" font-size="14.00" fill="#000000">reset_password_sent_at :datetime</text>
<text text-anchor="start" x="8" y="-284.3" font-family="Times,serif" font-size="14.00" fill="#000000">remember_created_at :datetime</text>
<text text-anchor="start" x="8" y="-270.3" font-family="Times,serif" font-size="14.00" fill="#000000">sign_in_count :integer</text>
<text text-anchor="start" x="8" y="-256.3" font-family="Times,serif" font-size="14.00" fill="#000000">current_sign_in_at :datetime</text>
<text text-anchor="start" x="8" y="-242.3" font-family="Times,serif" font-size="14.00" fill="#000000">last_sign_in_at :datetime</text>
<text text-anchor="start" x="8" y="-228.3" font-family="Times,serif" font-size="14.00" fill="#000000">current_sign_in_ip :varchar</text>
<text text-anchor="start" x="8" y="-214.3" font-family="Times,serif" font-size="14.00" fill="#000000">last_sign_in_ip :varchar</text>
<text text-anchor="start" x="8" y="-200.3" font-family="Times,serif" font-size="14.00" fill="#000000">created_at :datetime</text>
<text text-anchor="start" x="8" y="-186.3" font-family="Times,serif" font-size="14.00" fill="#000000">updated_at :datetime</text>
<text text-anchor="start" x="8" y="-172.3" font-family="Times,serif" font-size="14.00" fill="#000000">name :varchar</text>
<text text-anchor="start" x="8" y="-158.3" font-family="Times,serif" font-size="14.00" fill="#000000">id :INTEGER</text>
</g>
<!-- User&#45;&gt;JobApplication -->
<g id="edge6" class="edge">
<title>User&#45;&gt;JobApplication</title>
<path fill="none" stroke="#f4d58c" d="M210.3982,-155.0425C211.6975,-153.6862 212.9911,-152.3382 214.2778,-151 223.3825,-141.531 233.0775,-131.6099 242.6409,-121.915"/>
<ellipse fill="none" stroke="#f4d58c" cx="207.432" cy="-158.1468" rx="4" ry="4"/>
<polygon fill="#f4d58c" stroke="#f4d58c" points="242.8855,-121.6675 253.1164,-117.7204 246.4009,-118.112 249.9164,-114.5565 249.9164,-114.5565 249.9164,-114.5565 246.4009,-118.112 246.7164,-111.3926 242.8855,-121.6675 242.8855,-121.6675"/>
</g>
</g>
</svg>
